<svg width="50" height="51" viewBox="0 0 50 51" fill="none" xmlns="http://www.w3.org/2000/svg">
<path d="M40.9592 30.9946C40.9955 31.3039 40.9634 31.6177 40.8651 31.9127L40.2069 31.6249C40.5029 31.4784 40.7608 31.2624 40.9592 30.9946ZM42.8399 26.8154L41.7786 26.3495C42.2355 26.1369 42.5957 25.7547 42.7861 25.2807C42.9929 24.7696 42.9948 24.1961 42.7913 23.6836C42.5878 23.1711 42.1952 22.7606 41.698 22.5403L32.7781 18.6077L34.9275 18.4296C35.5289 18.3806 36.0869 18.0908 36.4795 17.6235C36.8722 17.1563 37.0676 16.5495 37.0231 15.9358C37.001 15.6313 36.9202 15.3344 36.7852 15.0619C36.6502 14.7895 36.4637 14.547 36.2365 14.3483C36.0093 14.1497 35.7458 13.9988 35.4612 13.9044C35.1766 13.81 34.8765 13.7739 34.5782 13.7982L22.2998 14.7574C21.373 14.779 20.4597 14.9886 19.6131 15.374L11.5529 11.8388C11.4652 11.8053 11.3684 11.8064 11.2815 11.8419C11.1945 11.8774 11.1236 11.9447 11.0828 12.0306C11.0628 12.0755 11.0518 12.124 11.0504 12.1733C11.0491 12.2226 11.0574 12.2717 11.075 12.3176C11.0925 12.3636 11.1188 12.4055 11.1525 12.4409C11.1861 12.4763 11.2263 12.5046 11.2708 12.5239L19.4788 16.1002C19.5227 16.1131 19.5692 16.1131 19.6131 16.1002C19.6616 16.1124 19.7123 16.1124 19.7609 16.1002C20.5735 15.7126 21.4566 15.5025 22.3536 15.4836L34.6051 14.5244C34.8097 14.5028 35.0165 14.5226 35.2137 14.5825C35.4108 14.6424 35.5945 14.7414 35.7542 14.8737C35.9138 15.006 36.0464 15.1691 36.1442 15.3537C36.2421 15.5383 36.3034 15.7407 36.3246 15.9495C36.3457 16.1582 36.3264 16.3691 36.2676 16.5702C36.2089 16.7713 36.1119 16.9587 35.9821 17.1215C35.8524 17.2844 35.6925 17.4196 35.5115 17.5194C35.3306 17.6193 35.1321 17.6818 34.9275 17.7034L31.3138 17.9911H31.1929C31.1557 18.0107 31.1235 18.0388 31.0989 18.0733C31.0934 18.1004 31.0934 18.1284 31.0989 18.1555C31.0926 18.1964 31.0926 18.238 31.0989 18.2789C31.0909 18.3103 31.0909 18.3433 31.0989 18.3748H31.1929L32.2407 19.1832L33.1139 19.1147C33.7036 19.0673 34.2878 19.2593 34.7394 19.6491C35.0056 19.8944 35.2125 20.1992 35.3439 20.5397L41.4025 23.1843C41.568 23.2544 41.7181 23.3576 41.8439 23.4878C41.9697 23.618 42.0687 23.7726 42.135 23.9424C42.2014 24.1122 42.2337 24.2939 42.2302 24.4767C42.2267 24.6595 42.1873 24.8397 42.1145 25.0067C42.0469 25.1763 41.9467 25.3303 41.8198 25.4598C41.6929 25.5892 41.5419 25.6914 41.3756 25.7603C41.2117 25.83 41.036 25.8659 40.8584 25.8659C40.6809 25.8659 40.5051 25.83 40.3412 25.7603L34.5647 23.2391C34.2782 23.4366 33.9526 23.5676 33.611 23.6228L40.0457 26.4317L42.5309 27.5142C42.695 27.5853 42.8437 27.6886 42.9686 27.8183C43.0935 27.948 43.1922 28.1016 43.2589 28.2702C43.3256 28.4388 43.3592 28.6191 43.3576 28.8009C43.356 28.9827 43.3193 29.1624 43.2496 29.3298C43.1799 29.4971 43.0786 29.6488 42.9514 29.7762C42.8243 29.9036 42.6738 30.0042 42.5085 30.0723C42.3432 30.1404 42.1664 30.1746 41.9881 30.173C41.8099 30.1713 41.6337 30.1339 41.4696 30.0628H41.3756C41.3608 30.2387 41.3153 30.4104 41.2413 30.5698L41.1472 30.748C41.3998 30.867 41.675 30.9278 41.9533 30.9261C42.4496 30.9514 42.9384 30.7948 43.3315 30.4846C43.7245 30.1745 43.9958 29.7311 44.0964 29.2347C44.197 28.7383 44.1202 28.2216 43.8799 27.7779C43.6396 27.3342 43.2516 26.9928 42.7861 26.8154H42.8399Z" fill="#68324A"/>
<path d="M42.7593 17.1414C42.7513 17.5406 42.628 17.9286 42.4048 18.2566C42.1816 18.5847 41.8683 18.8382 41.5044 18.9854C41.1405 19.1326 40.7421 19.1669 40.3591 19.0841C39.9761 19.0013 39.6256 18.805 39.3516 18.5198C39.0776 18.2346 38.8922 17.8732 38.8187 17.481C38.7452 17.0888 38.7868 16.6832 38.9384 16.315C39.09 15.9468 39.3448 15.6325 39.6708 15.4114C39.9968 15.1904 40.3796 15.0724 40.7711 15.0723C41.0361 15.0704 41.2988 15.1229 41.5436 15.2267C41.7883 15.3305 42.01 15.4835 42.1956 15.6766C42.3811 15.8697 42.5266 16.0988 42.6234 16.3505C42.7203 16.6022 42.7665 16.8711 42.7593 17.1414Z" fill="#68324A"/>
<path d="M40.0322 12.2362C40.0322 12.4883 39.959 12.7346 39.8217 12.9442C39.6844 13.1538 39.4893 13.3171 39.261 13.4135C39.0327 13.51 38.7815 13.5352 38.5392 13.4861C38.2968 13.4369 38.0742 13.3155 37.8995 13.1373C37.7248 12.9591 37.6058 12.732 37.5576 12.4848C37.5094 12.2376 37.5341 11.9814 37.6287 11.7486C37.7232 11.5157 37.8834 11.3167 38.0888 11.1767C38.2943 11.0367 38.5358 10.9619 38.7829 10.9619C39.1143 10.9619 39.432 11.0962 39.6663 11.3352C39.9006 11.5741 40.0322 11.8983 40.0322 12.2362Z" fill="#68324A"/>
<path d="M28.0897 42.573C28.7797 42.573 29.3391 42.0025 29.3391 41.2987C29.3391 40.5949 28.7797 40.0244 28.0897 40.0244C27.3998 40.0244 26.8404 40.5949 26.8404 41.2987C26.8404 42.0025 27.3998 42.573 28.0897 42.573Z" fill="#68324A"/>
<path d="M40.8517 25.7194C40.8454 25.3406 40.7622 24.9672 40.6072 24.6229C40.4523 24.2786 40.2291 23.9707 39.9516 23.7189C40.327 23.2567 40.5315 22.6748 40.5293 22.0746C40.5293 21.3768 40.2575 20.7077 39.7738 20.2143C39.2901 19.7209 38.6341 19.4437 37.95 19.4437C37.6419 19.4472 37.337 19.5076 37.05 19.6219C37.0567 19.4986 37.0567 19.3751 37.05 19.2519C37.0551 18.3471 36.753 17.4683 36.1951 16.7648C35.6372 16.0613 34.8577 15.5764 33.9892 15.3924C33.1206 15.2084 32.2163 15.3367 31.4299 15.7555C30.6435 16.1743 30.0234 16.8577 29.6749 17.6898C29.2172 17.2091 28.6336 16.8728 27.9937 16.721C27.3538 16.5692 26.6846 16.6083 26.0659 16.8335C25.4472 17.0588 24.905 17.4608 24.5041 17.9917C24.1031 18.5225 23.8602 19.1597 23.8044 19.8274L33.1139 19.1012C33.7036 19.0538 34.2878 19.2458 34.7394 19.6356C35.1805 20.0319 35.4548 20.5865 35.5051 21.1839C35.5497 21.7831 35.3599 22.376 34.9773 22.833C34.5947 23.29 34.0504 23.574 33.4632 23.6229L31.0317 23.8011L40.1934 27.8021C40.4408 27.9093 40.6646 28.0657 40.8518 28.2624C41.0389 28.459 41.1857 28.6919 41.2833 28.9472C41.3809 29.2026 41.4275 29.4753 41.4203 29.7493C41.4131 30.0232 41.3522 30.293 41.2413 30.5426C41.1398 30.7895 40.9914 31.0135 40.8047 31.2017C40.6179 31.3898 40.3965 31.5384 40.1531 31.6388L41.3219 32.1458C41.7381 32.3294 42.0796 32.6536 42.2891 33.0638C43.0002 32.659 43.5668 32.0341 43.907 31.2794C44.2473 30.5247 44.3437 29.6793 44.1823 28.8651C44.0208 28.0509 43.6099 27.3101 43.0089 26.7497C42.4078 26.1892 41.6477 25.838 40.8383 25.7468L40.8517 25.7194Z" fill="#68324A"/>
<path d="M25.2955 37.2296L22.2998 35.8594C22.2941 35.9323 22.2941 36.0057 22.2998 36.0786C22.2967 36.6668 22.4695 37.2419 22.7951 37.7273C23.1208 38.2127 23.5839 38.5853 24.1225 38.7952C24.6612 39.0051 25.2498 39.0425 25.8099 38.9023C26.3699 38.7622 26.8747 38.4511 27.2569 38.0106L25.2955 37.2296Z" fill="#68324A"/>
<path d="M41.3622 32.0632L40.3009 31.5973C40.759 31.3819 41.1227 31.0012 41.3219 30.5285C41.5243 30.0153 41.5224 29.4419 41.3167 28.9301C41.111 28.4183 40.7176 28.0086 40.2203 27.788L31.3004 23.8418L33.4766 23.6774C34.0781 23.6283 34.636 23.3386 35.0287 22.8713C35.4214 22.404 35.6168 21.7973 35.5723 21.1835C35.552 20.8785 35.4723 20.5806 35.3378 20.3073C35.2034 20.034 35.017 19.7907 34.7893 19.5917C34.5617 19.3927 34.2975 19.242 34.0122 19.1483C33.7268 19.0546 33.426 19.0198 33.1274 19.046L20.849 20.0051C19.9222 20.0268 19.0089 20.2364 18.1623 20.6217L9.67222 16.9358C9.62917 16.9157 9.58255 16.9046 9.5352 16.9034C9.48785 16.9022 9.44075 16.9109 9.39677 16.9288C9.35279 16.9467 9.31284 16.9736 9.27937 17.0078C9.24589 17.042 9.21958 17.0828 9.20204 17.1276C9.16923 17.2171 9.17032 17.3159 9.20511 17.4046C9.23989 17.4932 9.30586 17.5655 9.39011 17.6072L18.0011 21.3617H18.1354H18.2832C19.0937 20.9677 19.9781 20.7573 20.8759 20.7451L33.1274 19.7859C33.3407 19.749 33.5592 19.7582 33.7689 19.8129C33.9785 19.8676 34.1745 19.9667 34.3442 20.1036C34.5139 20.2405 34.6535 20.4123 34.754 20.6078C34.8545 20.8033 34.9136 21.0181 34.9275 21.2383C34.944 21.4472 34.9198 21.6573 34.8564 21.8566C34.793 22.0559 34.6916 22.2405 34.558 22.3997C34.4244 22.5589 34.2613 22.6895 34.078 22.7842C33.8947 22.8788 33.6949 22.9355 33.4901 22.9511L29.8764 23.2252H29.7555C29.7183 23.2447 29.6861 23.2729 29.6615 23.3074V23.3759C29.6482 23.4159 29.6482 23.4592 29.6615 23.4992C29.6556 23.5309 29.6556 23.5634 29.6615 23.5951H29.7555L40.0054 28.0758C40.1709 28.1459 40.321 28.2491 40.4468 28.3793C40.5726 28.5095 40.6716 28.6641 40.7379 28.8339C40.8043 29.0038 40.8366 29.1854 40.8331 29.3682C40.8296 29.551 40.7902 29.7312 40.7174 29.8982C40.6483 30.0653 40.5475 30.2167 40.4206 30.3437C40.2938 30.4707 40.1435 30.5708 39.9785 30.6381C39.8146 30.7078 39.6389 30.7437 39.4613 30.7437C39.2838 30.7437 39.108 30.7078 38.9441 30.6381L29.5406 26.5274C29.4975 26.5073 29.4509 26.4963 29.4036 26.495C29.3562 26.4938 29.3091 26.5025 29.2651 26.5204C29.2211 26.5384 29.1812 26.5652 29.1477 26.5994C29.1142 26.6336 29.0879 26.6744 29.0704 26.7193C29.0506 26.7632 29.0398 26.8107 29.0386 26.859C29.0375 26.9073 29.0459 26.9554 29.0635 27.0002C29.0811 27.0451 29.1075 27.0858 29.141 27.12C29.1745 27.1541 29.2145 27.181 29.2585 27.1988L38.5814 31.3095L41.0666 32.392C41.398 32.5356 41.6598 32.8075 41.7946 33.148C41.9294 33.4885 41.9261 33.8696 41.7853 34.2076C41.6446 34.5455 41.378 34.8126 41.0442 34.9501C40.7104 35.0876 40.3367 35.0842 40.0054 34.9407L38.2456 34.1733L28.2106 30.1448C28.1232 30.108 28.0251 30.1074 27.9373 30.1432C27.8495 30.179 27.7788 30.2485 27.7405 30.3367C27.7207 30.3806 27.7099 30.4281 27.7087 30.4764C27.7075 30.5247 27.716 30.5728 27.7336 30.6176C27.7512 30.6625 27.7775 30.7032 27.811 30.7374C27.8446 30.7715 27.8845 30.7984 27.9285 30.8163L37.9903 35.2147C38.1554 35.2867 38.3046 35.3917 38.4292 35.5235C38.5538 35.6553 38.6512 35.8112 38.7157 35.982C38.7841 36.1492 38.8193 36.3285 38.8193 36.5096C38.8193 36.6907 38.7841 36.87 38.7157 37.0371C38.6483 37.2071 38.548 37.3616 38.4209 37.4914C38.2938 37.6212 38.1425 37.7236 37.9759 37.7926C37.8092 37.8616 37.6307 37.8958 37.4509 37.8931C37.2711 37.8904 37.0937 37.851 36.9291 37.777L26.5583 33.2416C26.5153 33.2214 26.4686 33.2104 26.4213 33.2092C26.3739 33.208 26.3268 33.2166 26.2828 33.2345C26.2389 33.2525 26.1989 33.2794 26.1655 33.3136C26.132 33.3477 26.1057 33.3885 26.0881 33.4334C26.0684 33.4773 26.0576 33.5249 26.0564 33.5732C26.0552 33.6215 26.0637 33.6695 26.0812 33.7144C26.0988 33.7592 26.1252 33.8 26.1587 33.8341C26.1922 33.8682 26.2322 33.8951 26.2762 33.913L34.2692 37.4071C34.5872 37.5591 34.8341 37.8322 34.9572 38.1677C35.0802 38.5032 35.0695 38.8745 34.9275 39.2021C34.8584 39.3691 34.7576 39.5205 34.6307 39.6476C34.5039 39.7746 34.3536 39.8746 34.1886 39.942C34.0229 40.0136 33.8447 40.0505 33.6647 40.0505C33.4847 40.0505 33.3065 40.0136 33.1408 39.942L22.985 35.4887L18.525 33.543C17.6906 33.1739 16.94 32.6329 16.3205 31.9537C15.7009 31.2746 15.2257 30.4722 14.9248 29.5968C14.9018 29.5439 14.8665 29.4976 14.822 29.4618C14.7776 29.426 14.7252 29.4018 14.6695 29.3912L6.23321 25.6779C6.14549 25.6444 6.04869 25.6455 5.96173 25.681C5.87478 25.7165 5.80392 25.7838 5.76303 25.8697C5.74327 25.9136 5.73247 25.9612 5.73128 26.0095C5.7301 26.0578 5.73856 26.1058 5.75616 26.1507C5.77375 26.1955 5.8001 26.2363 5.83362 26.2704C5.86713 26.3046 5.9071 26.3314 5.9511 26.3493L14.2665 29.9941C14.6073 30.9382 15.1317 31.8024 15.8081 32.5347C16.4844 33.267 17.2989 33.8523 18.2026 34.2555L25.2418 37.3249L32.8452 40.6408C33.1046 40.7534 33.3829 40.8139 33.6647 40.8189C33.9312 40.8166 34.195 40.7655 34.4438 40.6682C34.9524 40.4558 35.358 40.047 35.5723 39.5309C35.7751 39.0587 35.7991 38.5265 35.6394 38.0374L36.5798 38.4621C36.84 38.5704 37.1183 38.6262 37.3993 38.6266C37.7229 38.6238 38.0414 38.544 38.3296 38.3937C38.6177 38.2434 38.8676 38.0266 39.0593 37.7606C39.2509 37.4946 39.3792 37.1867 39.4338 36.8613C39.4885 36.5359 39.468 36.202 39.374 35.8861L39.6964 36.0231C39.9494 36.1409 40.2243 36.2017 40.5024 36.2013C40.9987 36.2266 41.4876 36.07 41.8806 35.7598C42.2737 35.4496 42.545 35.0063 42.6456 34.5099C42.7461 34.0135 42.6693 33.4968 42.429 33.0531C42.1888 32.6094 41.8008 32.268 41.3353 32.0906L41.3622 32.0632Z" fill="#68324A"/>
<path d="M25 51C20.0555 51 15.222 49.5045 11.1107 46.7025C6.99952 43.9005 3.79521 39.918 1.90302 35.2584C0.0108245 30.5989 -0.484259 25.4717 0.480372 20.5252C1.445 15.5787 3.82602 11.035 7.32233 7.46879C10.8186 3.90255 15.2732 1.47391 20.1227 0.489987C24.9723 -0.493936 29.9989 0.0110488 34.5671 1.94108C39.1352 3.87112 43.0397 7.13952 45.7867 11.333C48.5338 15.5264 50 20.4566 50 25.5C49.9929 32.2608 47.3567 38.7426 42.6698 43.5232C37.9829 48.3038 31.6282 50.9928 25 51ZM25 1.02768C20.2547 1.02768 15.616 2.46296 11.6705 5.15202C7.72495 7.84107 4.64978 11.6631 2.83385 16.1349C1.01791 20.6066 0.54278 25.5272 1.46854 30.2743C2.39429 35.0215 4.67935 39.382 8.03476 42.8046C11.3902 46.2271 15.6652 48.5578 20.3193 49.5021C24.9734 50.4464 29.7975 49.9617 34.1815 48.1095C38.5656 46.2572 42.3127 43.1206 44.949 39.0961C47.5853 35.0717 48.9925 30.3402 48.9925 25.5C48.9854 19.0118 46.4553 12.7914 41.9574 8.20347C37.4595 3.61559 31.361 1.03494 25 1.02768Z" fill="#68324A"/>
</svg>
