<svg width="24" height="26" viewBox="0 0 24 26" fill="none" xmlns="http://www.w3.org/2000/svg">
<path d="M21.3589 3.86885H20.6C20.5356 3.86822 20.4718 3.88058 20.4128 3.90512V1.46533C20.4128 1.0767 20.2512 0.703986 19.9637 0.429184C19.6762 0.154382 19.2863 0 18.8797 0C18.4731 0 18.0832 0.154382 17.7957 0.429184C17.5082 0.703986 17.3467 1.0767 17.3467 1.46533V3.86885C17.3181 3.86635 17.2893 3.86635 17.2607 3.86885H6.74185C6.70256 3.86875 6.66343 3.87363 6.62548 3.88335V1.46533C6.62548 1.0767 6.46396 0.703986 6.17646 0.429184C5.88896 0.154382 5.49902 0 5.09243 0C4.68584 0 4.29591 0.154382 4.00841 0.429184C3.7209 0.703986 3.55939 1.0767 3.55939 1.46533V3.88335C3.50997 3.86593 3.45774 3.85693 3.40507 3.85676H2.64614C2.29833 3.85644 1.95388 3.92172 1.63252 4.04887C1.31116 4.17601 1.01921 4.36252 0.773389 4.5977C0.527573 4.83289 0.332724 5.11212 0.20001 5.41941C0.0672955 5.7267 -0.000676228 6.05599 -1.04143e-05 6.38843V22.4877C0.000659366 23.157 0.279131 23.7987 0.774286 24.272C1.26944 24.7453 1.94082 25.0115 2.64108 25.0121H21.3614C22.0612 25.0108 22.732 24.7444 23.2266 24.2711C23.7212 23.7979 23.9993 23.1566 24 22.4877V6.38843C23.998 5.71995 23.7189 5.07946 23.2239 4.60723C22.7289 4.13499 22.0583 3.86948 21.3589 3.86885ZM18.2144 1.46533C18.2144 1.38086 18.2318 1.29722 18.2656 1.21919C18.2994 1.14115 18.349 1.07024 18.4115 1.01052C18.474 0.950791 18.5482 0.903414 18.6298 0.87109C18.7114 0.838767 18.7989 0.82213 18.8873 0.82213C18.9757 0.82213 19.0632 0.838767 19.1448 0.87109C19.2265 0.903414 19.3006 0.950791 19.3631 1.01052C19.4256 1.07024 19.4752 1.14115 19.509 1.21919C19.5428 1.29722 19.5602 1.38086 19.5602 1.46533V5.87581C19.5602 5.96028 19.5428 6.04391 19.509 6.12195C19.4752 6.19999 19.4256 6.27089 19.3631 6.33062C19.3006 6.39034 19.2265 6.43772 19.1448 6.47005C19.0632 6.50237 18.9757 6.51901 18.8873 6.51901C18.7989 6.51901 18.7114 6.50237 18.6298 6.47005C18.5482 6.43772 18.474 6.39034 18.4115 6.33062C18.349 6.27089 18.2994 6.19999 18.2656 6.12195C18.2318 6.04391 18.2144 5.96028 18.2144 5.87581V1.46533ZM4.4271 1.46533C4.43762 1.30124 4.51323 1.14718 4.63851 1.03454C4.76379 0.921914 4.9293 0.859204 5.10129 0.859204C5.27327 0.859204 5.43879 0.921914 5.56406 1.03454C5.68934 1.14718 5.76495 1.30124 5.77547 1.46533V5.87581C5.76495 6.03989 5.68934 6.19396 5.56406 6.30659C5.43879 6.41922 5.27327 6.48193 5.10129 6.48193C4.9293 6.48193 4.76379 6.41922 4.63851 6.30659C4.51323 6.19396 4.43762 6.03989 4.4271 5.87581V1.46533ZM23.069 22.4877C23.0677 22.9208 22.8871 23.3358 22.5667 23.6421C22.2463 23.9484 21.812 24.121 21.3589 24.1223H2.63855C2.18584 24.1203 1.75229 23.9474 1.43241 23.6412C1.11253 23.335 0.932279 22.9204 0.930948 22.4877V6.38843C0.931617 5.95511 1.11201 5.53972 1.43257 5.23331C1.75314 4.9269 2.18773 4.75448 2.64108 4.75384H2.93706V5.62434C2.93706 5.89234 2.99229 6.15772 3.09959 6.40532C3.20689 6.65293 3.36416 6.8779 3.56243 7.06741C3.76069 7.25692 3.99607 7.40724 4.25511 7.5098C4.51416 7.61236 4.7918 7.66515 5.07219 7.66515C5.35258 7.66515 5.63023 7.61236 5.88927 7.5098C6.14832 7.40724 6.38369 7.25692 6.58196 7.06741C6.78023 6.8779 6.9375 6.65293 7.0448 6.40532C7.1521 6.15772 7.20733 5.89234 7.20733 5.62434V4.75384H16.7927V5.62434C16.7927 6.16559 17.0176 6.68468 17.418 7.06741C17.8184 7.45014 18.3615 7.66515 18.9278 7.66515C19.4941 7.66515 20.0371 7.45014 20.4376 7.06741C20.838 6.68468 21.0629 6.16559 21.0629 5.62434V4.75384H21.3589C21.8123 4.75448 22.2468 4.9269 22.5674 5.23331C22.888 5.53972 23.0684 5.95511 23.069 6.38843V22.4877Z" fill="#68324A"/>
<path d="M21.7131 10.2742H2.36787C2.30641 10.2742 2.24556 10.2857 2.18877 10.3082C2.13199 10.3307 2.0804 10.3637 2.03694 10.4052C1.99348 10.4467 1.95901 10.496 1.93549 10.5503C1.91197 10.6046 1.89986 10.6628 1.89986 10.7215V21.6486C1.90053 22.055 2.06973 22.4445 2.37037 22.7319C2.67101 23.0192 3.07857 23.181 3.50374 23.1816H20.5772C21.0019 23.1803 21.4089 23.0183 21.709 22.731C22.009 22.4437 22.1779 22.0545 22.1786 21.6486V10.7215C22.1789 10.6629 22.1671 10.6048 22.1439 10.5505C22.1206 10.4962 22.0864 10.4469 22.0431 10.4053C21.9999 10.3638 21.9484 10.3308 21.8918 10.3083C21.8352 10.2858 21.7744 10.2742 21.7131 10.2742ZM21.2501 21.6486C21.2501 21.7327 21.2328 21.816 21.1991 21.8938C21.1654 21.9715 21.116 22.0422 21.0538 22.1017C20.9915 22.1612 20.9176 22.2084 20.8363 22.2406C20.755 22.2728 20.6678 22.2894 20.5797 22.2894H3.50374C3.32594 22.2894 3.15543 22.2218 3.0297 22.1017C2.90398 21.9815 2.83335 21.8185 2.83335 21.6486V11.1664H21.2501V21.6486Z" fill="#68324A"/>
</svg>
