<svg width="30" height="44" viewBox="0 0 30 44" fill="none" xmlns="http://www.w3.org/2000/svg">
<g clip-path="url(#clip0_40_2)">
<path d="M18.7988 2.99403C18.6252 2.21296 17.974 1.64886 17.1491 1.60547C16.4978 1.64886 15.9334 2.03939 15.6729 2.6035C15.5427 2.82046 15.2822 2.99403 15.0217 2.99403C14.7612 2.99403 14.5007 2.86385 14.3271 2.6035C14.0666 2.03939 13.5022 1.64886 12.8509 1.60547C12.0695 1.64886 11.3748 2.21296 11.2012 2.99403C11.0275 3.60152 10.8538 5.81454 14.9783 8.20113C19.1462 5.81454 18.9725 3.60152 18.7988 2.99403Z" fill="#F4C575"/>
<path d="M17.4096 8.50493C18.2779 7.85404 19.0593 7.07298 19.6237 6.16174C20.3618 5.12032 20.6223 3.81854 20.3184 2.60355C19.9711 1.12821 18.6686 0.0433925 17.1491 0C16.3242 0 15.5861 0.34714 15.0217 0.911243C14.4573 0.34714 13.6758 0.0433925 12.8944 0C11.3748 0.0433925 10.0724 1.12821 9.72504 2.60355C9.46454 3.81854 9.68162 5.12032 10.4197 6.16174C11.0275 7.07298 11.7656 7.85404 12.6339 8.50493C5.34009 9.67653 0 15.9684 0 23.3018V41.5266C0 42.9152 1.47612 44 3.3864 44C5.29667 44 6.77279 42.9152 6.77279 41.5266V25.211C9.50796 24.4734 11.9392 22.7811 13.5456 20.4379C14.1534 19.5266 14.6744 18.5286 15.0651 17.4872C15.4559 18.5286 15.9768 19.5266 16.5847 20.4379C18.191 22.7811 20.5789 24.5168 23.3575 25.211V41.5266C23.3575 42.9152 24.8336 44 26.7438 44C28.6541 44 30.1302 42.9152 30.1302 41.5266V23.3018C30 15.9684 24.6599 9.67653 17.4096 8.50493ZM11.2012 2.99408C11.3748 2.21302 12.026 1.64892 12.8509 1.60552C13.5022 1.64892 14.0666 2.03945 14.3271 2.60355C14.4573 2.82051 14.7178 2.99408 14.9783 2.99408C15.2388 2.99408 15.4993 2.86391 15.6295 2.60355C15.89 2.03945 16.4544 1.64892 17.1056 1.60552C17.8871 1.64892 18.5818 2.21302 18.7554 2.99408C18.9291 3.60158 19.1028 5.8146 14.9783 8.20118C10.8538 5.8146 11.0709 3.60158 11.2012 2.99408ZM5.12301 41.5266C5.12301 41.8738 4.42836 42.4379 3.34298 42.4379C2.2576 42.4379 1.56295 41.9172 1.56295 41.5266V38.4458H5.12301V41.5266ZM5.12301 36.8402H1.56295V32.2406H5.12301V36.8402ZM5.12301 30.6351H1.56295V25.7751C1.86686 25.7751 2.12735 25.7751 2.38784 25.7751C3.29957 25.7751 4.21129 25.6884 5.12301 25.5582V30.6351ZM12.1997 19.5266C10.8973 21.4793 8.98698 22.9112 6.72938 23.6055V23.3018C6.72938 19.0927 9.8987 15.5779 14.0666 15.1006C13.7192 16.6627 13.068 18.1815 12.1997 19.5266ZM14.2402 13.4951C9.11722 13.929 5.16643 18.1815 5.16643 23.3018V23.9527C3.99421 24.1696 2.77858 24.213 1.60637 24.1696V23.3018C1.60637 16.1854 7.16353 10.3274 14.2402 9.89349V13.4951ZM23.2706 23.6055C21.0564 22.9112 19.1462 21.5227 17.8437 19.6134C16.932 18.2682 16.2808 16.7061 15.9334 15.1006C20.1013 15.5779 23.2706 19.1361 23.2706 23.3018V23.6055ZM28.437 41.5266C28.437 41.8738 27.7424 42.4379 26.657 42.4379C25.5716 42.4379 24.877 41.9172 24.877 41.5266V38.4458H28.437V41.5266ZM28.437 36.8836H24.877V32.2406H28.437V36.8836ZM28.437 30.6785H24.877V25.5582C25.7887 25.6884 26.7004 25.7751 27.6122 25.7751C27.8726 25.7751 28.1766 25.7751 28.437 25.7751V30.6785ZM28.437 24.213C27.2214 24.2998 26.0492 24.213 24.877 23.9961V23.3018C24.877 18.1815 20.9262 13.8856 15.8032 13.4951V9.89349C22.8799 10.3274 28.437 16.1854 28.437 23.3018V24.213Z" fill="white"/>
</g>
<defs>
<clipPath id="clip0_40_2">
<rect width="30" height="44" fill="white"/>
</clipPath>
</defs>
</svg>
