<svg width="34" height="40" viewBox="0 0 34 40" fill="none" xmlns="http://www.w3.org/2000/svg">
<g clip-path="url(#clip0_5_88)">
<path d="M28.0179 18.3505V10.486H20.0232C19.9205 10.4866 19.8187 10.4664 19.7237 10.4266C19.6286 10.3869 19.5423 10.3283 19.4697 10.2544C19.397 10.1804 19.3395 10.0925 19.3005 9.99579C19.2614 9.89905 19.2416 9.79539 19.2422 9.6908V1.58594H5.98207V18.3505L17.0021 26.8923L28.0179 18.3505ZM16.6245 22.1124C14.5904 20.9721 13.0928 19.6832 12.2302 18.2806C11.8598 17.7416 11.6039 17.1297 11.4791 16.4842C11.3542 15.8387 11.363 15.1737 11.505 14.5319C11.6712 13.771 12.0825 13.0885 12.6734 12.5929C13.2644 12.0974 14.001 11.8171 14.7664 11.7968C15.6062 11.8064 16.4082 12.1534 16.9978 12.7623C17.5896 12.154 18.3927 11.8071 19.2336 11.7968C19.9972 11.8164 20.7325 12.0948 21.3232 12.5878C21.9139 13.0808 22.3263 13.7603 22.495 14.5188C22.637 15.1606 22.6458 15.8256 22.5209 16.4711C22.3961 17.1166 22.1402 17.7285 21.7698 18.2675C20.9115 19.67 19.4267 20.959 17.3712 22.0993C17.2565 22.1624 17.1282 22.1955 16.9978 22.1955C16.8675 22.1955 16.7392 22.1624 16.6245 22.0993V22.1124Z" fill="#F4C575"/>
<path d="M32.6611 15.5456L29.5842 12.994V9.72585C29.5797 9.51788 29.4949 9.32008 29.3482 9.17533L20.5725 0.23158C20.5004 0.158148 20.4147 0.0999036 20.3205 0.0601711C20.2262 0.0204385 20.1252 -3.55253e-06 20.0232 1.21379e-05H5.20533C5.10261 -0.000567312 5.00079 0.0196054 4.90578 0.0593624C4.81077 0.0991194 4.72444 0.157671 4.6518 0.231627C4.57917 0.305583 4.52166 0.393475 4.48261 0.490214C4.44356 0.586953 4.42375 0.690618 4.42432 0.795206V13.029C4.38802 13.0508 4.35357 13.0756 4.32133 13.1032L1.34745 15.5412C0.926127 15.8797 0.585885 16.3112 0.352446 16.8032C0.119008 17.2952 -0.00151685 17.8348 -1.66833e-05 18.3812V36.3736C0.00111897 37.335 0.376742 38.2567 1.04446 38.9366C1.71218 39.6164 2.61747 39.9989 3.56177 40H30.4382C31.3825 39.9989 32.2878 39.6164 32.9555 38.9366C33.6232 38.2567 33.9988 37.335 34 36.3736V18.3812C34.0009 17.8364 33.881 17.2985 33.6492 16.8075C33.4173 16.3165 33.0796 15.8851 32.6611 15.5456ZM29.5756 15.0344L30.8974 16.1355L29.5714 17.1622L29.5756 15.0344ZM5.97348 1.58603H19.2336V9.72585C19.233 9.83043 19.2528 9.9341 19.2919 10.0308C19.3309 10.1276 19.3885 10.2155 19.4611 10.2894C19.5337 10.3634 19.6201 10.4219 19.7151 10.4617C19.8101 10.5014 19.9119 10.5216 20.0146 10.521H28.0179V18.3506L17.0021 26.8924L5.98206 18.3506L5.97348 1.58603ZM20.7999 2.70891L26.915 8.93502H20.7999V2.70891ZM4.42432 15.0432V17.1622L3.0983 16.1355L4.42432 15.0432ZM1.55773 36.3736V18.3812C1.55736 17.9639 1.68321 17.5566 1.9182 17.2146L15.6504 27.8405L1.73796 37.2081C1.61879 36.9466 1.55727 36.6618 1.55773 36.3736ZM30.4382 38.414H3.56177C3.3474 38.4129 3.13453 38.3775 2.93094 38.3091L17.0021 28.8367L31.069 38.3091C30.8654 38.3775 30.6526 38.4129 30.4382 38.414ZM32.4422 36.3736C32.4427 36.6618 32.3812 36.9466 32.262 37.2081L18.3453 27.8405L32.0775 17.2146C32.3125 17.5566 32.4383 17.9639 32.4379 18.3812L32.4422 36.3736Z" fill="white"/>
<path d="M21.7698 18.2808C22.1402 17.7417 22.3961 17.1298 22.5209 16.4843C22.6458 15.8388 22.637 15.1738 22.495 14.532C22.3288 13.7711 21.9175 13.0886 21.3265 12.5931C20.7356 12.0975 19.9989 11.8172 19.2336 11.7969C18.3927 11.8073 17.5896 12.1541 16.9979 12.7625C16.4082 12.1536 15.6062 11.8065 14.7664 11.7969C14.0028 11.8165 13.2675 12.0949 12.6768 12.5879C12.0861 13.0809 11.6737 13.7604 11.505 14.5189C11.363 15.1607 11.3542 15.8257 11.4791 16.4712C11.6039 17.1167 11.8598 17.7286 12.2302 18.2677C13.0885 19.6702 14.5733 20.9591 16.6245 22.0994C16.7392 22.1625 16.8675 22.1956 16.9979 22.1956C17.1282 22.1956 17.2565 22.1625 17.3712 22.0994C19.4267 20.9722 20.9072 19.6833 21.7698 18.2808ZM13.0155 14.9252C13.1043 14.5111 13.3233 14.1378 13.6392 13.8619C13.9552 13.5859 14.3509 13.4224 14.7664 13.396C15.0963 13.4185 15.4146 13.5288 15.6895 13.7159C15.9643 13.903 16.1862 14.1603 16.3327 14.4621C16.4024 14.5781 16.5002 14.6739 16.6166 14.7404C16.7331 14.807 16.8643 14.842 16.9979 14.8422C17.1321 14.8428 17.2643 14.8081 17.3815 14.7415C17.4988 14.6749 17.5972 14.5787 17.6673 14.4621C17.8131 14.1598 18.0348 13.902 18.3098 13.7148C18.5848 13.5276 18.9035 13.4176 19.2336 13.396C19.6491 13.4224 20.0448 13.5859 20.3608 13.8619C20.6767 14.1378 20.8957 14.5111 20.9845 14.9252C21.1518 15.6024 21.3492 17.9837 16.9979 20.5091C12.6508 17.9618 12.8482 15.6024 13.0155 14.9252Z" fill="white"/>
</g>
<defs>
<clipPath id="clip0_5_88">
<rect width="34" height="40" fill="white"/>
</clipPath>
</defs>
</svg>
