<svg width="39" height="39" viewBox="0 0 39 39" fill="none" xmlns="http://www.w3.org/2000/svg">
<g clip-path="url(#clip0_5_99)">
<path d="M20.2194 22.8385C19.4353 21.5276 19.1818 19.9554 19.5128 18.4562C19.7331 17.4755 20.2634 16.5965 21.0214 15.9555C21.7795 15.3144 22.7229 14.9471 23.7056 14.9104C24.2346 14.9136 24.7578 15.0238 25.2451 15.2346C25.7323 15.4454 26.174 15.7527 26.5449 16.1388C27.6729 13.2159 26.6342 10.7024 24.8422 9.60468C23.3608 8.71168 21.0579 8.61149 19.4191 11.3253C19.3501 11.4397 19.2536 11.5341 19.1389 11.5996C19.0241 11.6651 18.895 11.6995 18.7636 11.6995C18.6322 11.6995 18.503 11.6651 18.3883 11.5996C18.2735 11.5341 18.1771 11.4397 18.108 11.3253C17.0481 9.5829 15.5072 8.78574 13.8854 9.14729C13.0086 9.36919 12.2192 9.86049 11.6233 10.5551C11.0275 11.2498 10.6538 12.1145 10.5524 13.0329C10.314 14.7754 10.6588 19.2186 18.7636 23.7315C19.2701 23.4222 19.7554 23.1347 20.2194 22.8385Z" fill="#F4C575"/>
<path d="M35.7564 0H7.68336C6.82345 0.00115257 5.99908 0.351237 5.39102 0.973484C4.78297 1.59573 4.44087 2.43935 4.43975 3.31933V29.299L0.0893871 37.8456C0.02775 37.966 -0.00243032 38.1007 0.00177494 38.2365C0.0059802 38.3724 0.0444282 38.5048 0.113388 38.6209C0.182348 38.7371 0.279477 38.833 0.395351 38.8995C0.511225 38.9659 0.641907 39.0005 0.774718 39C0.860235 39.0001 0.945151 38.9854 1.02586 38.9564L11.1994 35.367H35.7564C36.617 35.367 37.4425 35.0175 38.0515 34.3951C38.6604 33.7727 39.0031 32.9284 39.0042 32.0477V3.31933C39.0031 2.43859 38.6604 1.59432 38.0515 0.971946C37.4425 0.349575 36.617 -7.56432e-07 35.7564 0V0ZM37.4591 32.0477C37.4591 32.5098 37.2797 32.953 36.9604 33.2798C36.641 33.6066 36.208 33.7901 35.7564 33.7901H11.0674C10.9821 33.7917 10.8974 33.8064 10.8163 33.8337L2.35396 36.8176L5.89554 29.8479C5.95448 29.7354 5.9852 29.6096 5.98493 29.482V3.31933C5.98493 2.85721 6.16432 2.41402 6.48364 2.08725C6.80295 1.76048 7.23604 1.5769 7.68762 1.5769H35.7564C36.208 1.5769 36.641 1.76048 36.9604 2.08725C37.2797 2.41402 37.4591 2.85721 37.4591 3.31933V32.0477Z" fill="white"/>
<path d="M29.7289 14.9109C29.2937 14.9117 28.8619 14.9883 28.4519 15.1375C29.018 12.0882 27.6814 9.49633 25.6339 8.24614C24.5327 7.56435 23.225 7.32076 21.9597 7.56174C20.6944 7.80271 19.5599 8.51143 18.7721 9.55296C17.3887 7.88894 15.5072 7.16147 13.5704 7.57965C12.3807 7.86887 11.3068 8.52558 10.4943 9.4607C9.6818 10.3958 9.17005 11.5641 9.02848 12.807C8.74328 14.8892 9.08808 20.2776 18.3932 25.3263C18.5049 25.3862 18.629 25.4175 18.7551 25.4175C18.8811 25.4175 19.0053 25.3862 19.1169 25.3263C19.8022 24.9517 20.462 24.564 21.0835 24.172C22.2711 25.6835 24.0377 27.0775 26.349 28.332C26.4607 28.3919 26.5848 28.4232 26.7109 28.4232C26.8369 28.4232 26.9611 28.3919 27.0727 28.332C29.814 26.8466 31.7891 25.1608 32.9427 23.3182C34.2197 21.2752 34.1771 19.5589 33.9175 18.4786C33.7007 17.4949 33.1726 16.6119 32.4152 15.9668C31.6579 15.3217 30.7135 14.9505 29.7289 14.9109ZM10.5524 13.0073C10.6538 12.0889 11.0275 11.2242 11.6233 10.5295C12.2192 9.83491 13.0086 9.34361 13.8854 9.12171C15.5072 8.76887 17.0481 9.55732 18.1081 11.2997C18.1771 11.4141 18.2735 11.5086 18.3883 11.574C18.503 11.6395 18.6322 11.6739 18.7636 11.6739C18.895 11.6739 19.0242 11.6395 19.1389 11.574C19.2536 11.5086 19.3501 11.4141 19.4191 11.2997C21.058 8.60333 23.3608 8.6861 24.8337 9.59652C26.6342 10.6943 27.6729 13.2077 26.5363 16.1306C26.1655 15.7445 25.7238 15.4372 25.2365 15.2264C24.7493 15.0156 24.2261 14.9054 23.6971 14.9022C22.7144 14.9389 21.7709 15.3063 21.0129 15.9473C20.2549 16.5884 19.7246 17.4673 19.5043 18.4481C19.1735 19.9511 19.4301 21.527 20.2194 22.839C19.7554 23.1352 19.2701 23.4227 18.7636 23.7102C10.6418 19.193 10.314 14.7323 10.5524 13.0073ZM26.7279 26.7116C20.5173 23.2267 20.7685 19.8115 21.0239 18.8358C21.1579 18.1967 21.4942 17.6207 21.9805 17.197C22.4669 16.7733 23.0762 16.5256 23.7141 16.4922C24.6293 16.4922 25.4636 17.0454 26.0724 18.043C26.1421 18.1563 26.2389 18.2498 26.3535 18.3145C26.4681 18.3793 26.597 18.4133 26.7279 18.4133C26.8588 18.4133 26.9876 18.3793 27.1023 18.3145C27.2169 18.2498 27.3136 18.1563 27.3834 18.043C27.9921 17.0454 28.8265 16.4922 29.7374 16.4922C30.376 16.5246 30.9863 16.7719 31.4736 17.1957C31.9608 17.6195 32.2977 18.196 32.4319 18.8358C32.6617 19.8115 32.9299 23.218 26.7194 26.7116H26.7279Z" fill="white"/>
</g>
<defs>
<clipPath id="clip0_5_99">
<rect width="39" height="39" fill="white"/>
</clipPath>
</defs>
</svg>
