<svg width="38" height="36" viewBox="0 0 38 36" fill="none" xmlns="http://www.w3.org/2000/svg">
<g clip-path="url(#clip0_5_80)">
<path d="M36.4437 14.3145H34.8009V18.9859H36.4437V14.3145Z" fill="#F4C575"/>
<path d="M24.5552 23.5293H20.2321V25.8007H24.5552V23.5293Z" fill="#F4C575"/>
<path d="M10.0296 14.915H8.3868V18.4722H10.0296V14.915Z" fill="#F4C575"/>
<path d="M1.55631 19.9718L6.78726 17.0147V16.2861L1.55631 13.2861V19.9718Z" fill="#F4C575"/>
<path d="M37.2218 12.7719H34.8009V10.5433C34.8009 10.1148 34.4551 9.77192 34.0228 9.77192H31.256C33.5472 7.62906 33.6337 4.07192 31.4721 1.80049C29.3106 -0.470941 25.7224 -0.556655 23.4312 1.5862C23.0421 1.92906 22.7395 2.35763 22.4369 2.82906C20.8373 0.12906 17.3788 -0.77094 14.6553 0.814774C11.9317 2.40049 11.0239 5.82906 12.6234 8.52906C12.8828 9.00049 13.2287 9.42906 13.6177 9.77192H10.8077C10.3754 9.77192 10.0296 10.1148 10.0296 10.5433V13.3719H7.60865C7.17634 13.3719 6.83049 13.7148 6.83049 14.1433C6.83049 14.1433 6.83049 14.1433 6.83049 14.1862V14.5291L1.21047 11.3148C0.951081 11.1862 0.691695 11.1862 0.432309 11.3148C0.172924 11.4005 0 11.6576 0 11.9148V21.3005C0 21.7291 0.345848 22.0719 0.778157 22.0719C0.90785 22.0719 1.03754 22.0291 1.16724 21.9862L6.78726 18.7719V19.2005C6.78726 19.6291 7.13311 19.9719 7.56542 19.9719H10.0296V22.7148C10.0296 23.1433 10.3754 23.4862 10.8077 23.4862H18.6758V26.5291C18.6758 26.9576 19.0216 27.3005 19.4539 27.3005H20.1024L14.8282 34.7576C14.5688 35.1005 14.6553 35.5719 15.0011 35.8291C15.1308 35.9148 15.3038 35.9576 15.4334 35.9576C15.6928 35.9576 15.909 35.8291 16.0819 35.6148L21.5722 27.9005V35.1862C21.6155 35.6148 21.9613 35.9576 22.3936 35.9148C22.7827 35.8719 23.0853 35.5719 23.1286 35.1862V27.9005L28.6189 35.6148C28.7486 35.8291 29.008 35.9576 29.2673 35.9576C29.4403 35.9576 29.57 35.9148 29.6997 35.8291C30.0455 35.5719 30.132 35.1005 29.8726 34.7576L24.7281 27.3862H25.3766C25.8089 27.3862 26.1547 27.0433 26.1547 26.6148V23.5719H34.0228C34.4551 23.5719 34.8009 23.2291 34.8009 22.8005V20.5719H37.2218C37.6542 20.5719 38 20.2291 38 19.8005V13.5433C38 13.1148 37.6542 12.7719 37.2218 12.7719ZM24.4255 2.74335C26.025 1.15763 28.6189 1.15763 30.2617 2.74335C31.0398 3.51477 31.4721 4.54335 31.4721 5.61477C31.4721 7.8862 29.6132 9.6862 27.3652 9.72906C25.0739 9.72906 23.2582 7.92906 23.215 5.65763C23.215 4.5862 23.6473 3.51477 24.4255 2.74335ZM22.4369 8.4862C22.6962 8.95763 23.0421 9.34335 23.4312 9.72906H21.4425C21.8316 9.34335 22.1342 8.95763 22.4369 8.4862ZM13.4016 5.65763C13.4016 3.3862 15.2173 1.5862 17.5085 1.54335C19.7998 1.62906 21.5722 3.51477 21.4858 5.74335C21.3993 7.8862 19.6701 9.64335 17.5085 9.6862C15.2605 9.72906 13.4016 7.8862 13.4016 5.65763ZM10.0296 18.4719H8.3868V14.9148H10.0296V18.4719ZM6.78726 17.0148L1.55631 20.0148V13.2862L6.78726 16.2862V17.0148ZM24.5552 25.8005H20.2321V23.5291H24.5552V25.8005ZM33.2014 21.9433H11.5859V11.2291H33.2014V21.9433ZM36.4437 18.9433H34.8009V14.3148H36.4437V18.9433Z" fill="white"/>
</g>
<defs>
<clipPath id="clip0_5_80">
<rect width="38" height="36" fill="white"/>
</clipPath>
</defs>
</svg>
