<svg width="45" height="44" viewBox="0 0 45 44" fill="none" xmlns="http://www.w3.org/2000/svg">
<g clip-path="url(#clip0_40_21)">
<path d="M22.5 30.8182C27.7226 27.8392 27.4935 25.0869 27.2963 24.296C27.1902 23.8152 26.9282 23.3818 26.5501 23.0619C26.172 22.7421 25.6985 22.5533 25.2019 22.5244C24.8081 22.5496 24.428 22.6769 24.0996 22.8935C23.7713 23.11 23.5063 23.4083 23.3314 23.7582C23.2458 23.8995 23.1248 24.0165 22.9801 24.0978C22.8353 24.1791 22.6718 24.2219 22.5053 24.2222C22.3386 24.2235 22.1744 24.1813 22.0294 24.0999C21.8844 24.0184 21.7636 23.9006 21.6793 23.7582C21.5065 23.4066 21.2421 23.1069 20.9133 22.89C20.5845 22.6732 20.2032 22.547 19.8087 22.5244C19.3125 22.5527 18.8394 22.7414 18.462 23.0614C18.0847 23.3815 17.8239 23.8152 17.7197 24.296C17.5065 25.0869 17.2774 27.8392 22.5 30.8182Z" fill="#F4C575"/>
<path d="M41.115 6.12109H39.9692V9.5852C39.9692 10.4382 39.6267 11.2563 39.0171 11.8595C38.4074 12.4626 37.5806 12.8015 36.7184 12.8015C35.8562 12.8015 35.0293 12.4626 34.4197 11.8595C33.81 11.2563 33.4675 10.4382 33.4675 9.5852V6.12109H25.7508V9.5852C25.7508 10.4382 25.4083 11.2563 24.7987 11.8595C24.189 12.4626 23.3622 12.8015 22.5 12.8015C21.6378 12.8015 20.811 12.4626 20.2013 11.8595C19.5917 11.2563 19.2492 10.4382 19.2492 9.5852V6.12109H11.5484V9.5852C11.5144 10.4164 11.1568 11.2023 10.5503 11.7785C9.94392 12.3547 9.13573 12.6765 8.29494 12.6765C7.45416 12.6765 6.64596 12.3547 6.03954 11.7785C5.43311 11.2023 5.07546 10.4164 5.04145 9.5852V6.12109H3.88501C3.36813 6.12249 2.87284 6.32625 2.50735 6.68785C2.14187 7.04945 1.93592 7.53949 1.93451 8.05087V14.5784H43.0655V8.05087C43.0641 7.53949 42.8581 7.04945 42.4926 6.68785C42.1272 6.32625 41.6319 6.12249 41.115 6.12109Z" fill="#F4C575"/>
<path d="M41.115 4.21809H39.9692V3.2163C39.9692 2.36328 39.6267 1.5452 39.0171 0.942032C38.4074 0.338859 37.5806 0 36.7184 0C35.8562 0 35.0293 0.338859 34.4197 0.942032C33.81 1.5452 33.4675 2.36328 33.4675 3.2163V4.21809H25.7508V3.2163C25.7508 2.36328 25.4083 1.5452 24.7987 0.942032C24.189 0.338859 23.3622 0 22.5 0C21.6378 0 20.811 0.338859 20.2013 0.942032C19.5917 1.5452 19.2492 2.36328 19.2492 3.2163V4.21809H11.5484V3.2163C11.5144 2.38512 11.1568 1.59919 10.5503 1.02299C9.94392 0.446804 9.13573 0.125031 8.29494 0.125031C7.45416 0.125031 6.64596 0.446804 6.03954 1.02299C5.43311 1.59919 5.07546 2.38512 5.04145 3.2163V4.21809H3.88501C2.85691 4.21948 1.87117 4.62344 1.1432 5.3417C0.415231 6.05997 0.00422409 7.03412 0 8.05129L0 40.151C0.00140576 41.1705 0.411 42.1479 1.13912 42.8693C1.86725 43.5906 2.85458 43.9972 3.88501 44H41.115C42.1454 43.9972 43.1328 43.5906 43.8609 42.8693C44.589 42.1479 44.9986 41.1705 45 40.151V8.05129C44.9958 7.03412 44.5848 6.05997 43.8568 5.3417C43.1288 4.62344 42.1431 4.21948 41.115 4.21809ZM43.0655 14.5893H1.93451V8.05129C1.93592 7.53991 2.14187 7.04987 2.50735 6.68827C2.87284 6.32666 3.36814 6.1229 3.88501 6.12151H5.04145V9.58562C5.07546 10.4168 5.43311 11.2027 6.03954 11.7789C6.64596 12.3551 7.45416 12.6769 8.29494 12.6769C9.13573 12.6769 9.94392 12.3551 10.5503 11.7789C11.1568 11.2027 11.5144 10.4168 11.5484 9.58562V6.12151H19.2492V9.58562C19.2492 10.008 19.3333 10.4262 19.4966 10.8164C19.66 11.2067 19.8994 11.5612 20.2013 11.8599C20.5032 12.1585 20.8616 12.3955 21.256 12.5571C21.6504 12.7187 22.0731 12.8019 22.5 12.8019C22.9269 12.8019 23.3496 12.7187 23.744 12.5571C24.1384 12.3955 24.4968 12.1585 24.7987 11.8599C25.1005 11.5612 25.34 11.2067 25.5034 10.8164C25.6667 10.4262 25.7508 10.008 25.7508 9.58562V6.12151H33.4569V9.58562C33.4569 10.4386 33.7994 11.2567 34.409 11.8599C35.0187 12.4631 35.8455 12.8019 36.7077 12.8019C37.5699 12.8019 38.3968 12.4631 39.0064 11.8599C39.6161 11.2567 39.9585 10.4386 39.9585 9.58562V6.12151H41.115C41.6319 6.1229 42.1272 6.32666 42.4926 6.68827C42.8581 7.04987 43.0641 7.53991 43.0655 8.05129V14.5893ZM35.3914 3.2163C35.3914 2.8709 35.5301 2.53964 35.7769 2.29541C36.0238 2.05117 36.3586 1.91396 36.7077 1.91396C37.0568 1.91396 37.3916 2.05117 37.6385 2.29541C37.8854 2.53964 38.024 2.8709 38.024 3.2163V9.58562C38.024 9.93102 37.8854 10.2623 37.6385 10.5065C37.3916 10.7507 37.0568 10.888 36.7077 10.888C36.3586 10.888 36.0238 10.7507 35.7769 10.5065C35.5301 10.2623 35.3914 9.93102 35.3914 9.58562V3.2163ZM21.1837 3.2163C21.1837 2.8709 21.3224 2.53964 21.5692 2.29541C21.8161 2.05117 22.1509 1.91396 22.5 1.91396C22.8491 1.91396 23.1839 2.05117 23.4308 2.29541C23.6776 2.53964 23.8163 2.8709 23.8163 3.2163V9.58562C23.8163 9.93102 23.6776 10.2623 23.4308 10.5065C23.1839 10.7507 22.8491 10.888 22.5 10.888C22.1509 10.888 21.8161 10.7507 21.5692 10.5065C21.3224 10.2623 21.1837 9.93102 21.1837 9.58562V3.2163ZM6.97596 3.2163C7.02101 2.90476 7.17812 2.61974 7.41844 2.41357C7.65877 2.20739 7.96619 2.09389 8.28428 2.09389C8.60238 2.09389 8.9098 2.20739 9.15012 2.41357C9.39045 2.61974 9.54756 2.90476 9.59261 3.2163V9.58562C9.57128 9.91738 9.42304 10.2287 9.17803 10.4561C8.93302 10.6836 8.60963 10.8102 8.27363 10.8102C7.93762 10.8102 7.61424 10.6836 7.36922 10.4561C7.12421 10.2287 6.97597 9.91738 6.95464 9.58562L6.97596 3.2163ZM43.0655 40.151C43.0655 40.6628 42.86 41.1536 42.4942 41.5156C42.1284 41.8775 41.6323 42.0808 41.115 42.0808H3.88501C3.3677 42.0808 2.87159 41.8775 2.5058 41.5156C2.14001 41.1536 1.93451 40.6628 1.93451 40.151V16.4928H43.0655V40.151Z" fill="white"/>
<path d="M5.74491 23.1366H12.1826C12.4267 23.1187 12.655 23.0101 12.8216 22.8326C12.9881 22.6551 13.0807 22.4218 13.0807 22.1796C13.0807 21.9374 12.9881 21.7042 12.8216 21.5267C12.655 21.3492 12.4267 21.2406 12.1826 21.2227H5.74491C5.50078 21.2406 5.27253 21.3492 5.10597 21.5267C4.9394 21.7042 4.84683 21.9374 4.84683 22.1796C4.84683 22.4218 4.9394 22.6551 5.10597 22.8326C5.27253 23.0101 5.50078 23.1187 5.74491 23.1366Z" fill="white"/>
<path d="M5.74491 37.161H12.1826C12.4267 37.1431 12.655 37.0345 12.8216 36.857C12.9881 36.6795 13.0807 36.4463 13.0807 36.2041C13.0807 35.9619 12.9881 35.7286 12.8216 35.5511C12.655 35.3736 12.4267 35.265 12.1826 35.2471H5.74491C5.50078 35.265 5.27253 35.3736 5.10597 35.5511C4.9394 35.7286 4.84683 35.9619 4.84683 36.2041C4.84683 36.4463 4.9394 36.6795 5.10597 36.857C5.27253 37.0345 5.50078 37.1431 5.74491 37.161Z" fill="white"/>
<path d="M5.74491 30.1493H12.1826C12.4267 30.1314 12.655 30.0228 12.8216 29.8453C12.9881 29.6678 13.0807 29.4345 13.0807 29.1923C13.0807 28.9501 12.9881 28.7169 12.8216 28.5394C12.655 28.3619 12.4267 28.2533 12.1826 28.2354H5.74491C5.50078 28.2533 5.27253 28.3619 5.10597 28.5394C4.9394 28.7169 4.84683 28.9501 4.84683 29.1923C4.84683 29.4345 4.9394 29.6678 5.10597 29.8453C5.27253 30.0228 5.50078 30.1314 5.74491 30.1493Z" fill="white"/>
<path d="M32.8227 23.1363H39.2551C39.3881 23.1461 39.5218 23.1286 39.6477 23.085C39.7736 23.0413 39.8891 22.9724 39.9869 22.8826C40.0847 22.7928 40.1627 22.6839 40.216 22.5629C40.2693 22.4419 40.2969 22.3114 40.2969 22.1793C40.2969 22.0473 40.2693 21.9167 40.216 21.7957C40.1627 21.6747 40.0847 21.5659 39.9869 21.4761C39.8891 21.3863 39.7736 21.3174 39.6477 21.2737C39.5218 21.2301 39.3881 21.2126 39.2551 21.2224H32.8227C32.6897 21.2126 32.556 21.2301 32.4301 21.2737C32.3042 21.3174 32.1887 21.3863 32.0909 21.4761C31.9931 21.5659 31.9151 21.6747 31.8618 21.7957C31.8085 21.9167 31.7809 22.0473 31.7809 22.1793C31.7809 22.3114 31.8085 22.4419 31.8618 22.5629C31.9151 22.6839 31.9931 22.7928 32.0909 22.8826C32.1887 22.9724 32.3042 23.0413 32.4301 23.085C32.556 23.1286 32.6897 23.1461 32.8227 23.1363Z" fill="white"/>
<path d="M32.8227 37.1617H39.2551C39.3881 37.1715 39.5218 37.154 39.6477 37.1103C39.7736 37.0667 39.8891 36.9978 39.9869 36.908C40.0847 36.8181 40.1627 36.7093 40.216 36.5883C40.2693 36.4673 40.2969 36.3367 40.2969 36.2047C40.2969 36.0727 40.2693 35.9421 40.216 35.8211C40.1627 35.7001 40.0847 35.5913 39.9869 35.5015C39.8891 35.4117 39.7736 35.3428 39.6477 35.2991C39.5218 35.2555 39.3881 35.238 39.2551 35.2478H32.8227C32.6897 35.238 32.556 35.2555 32.4301 35.2991C32.3042 35.3428 32.1887 35.4117 32.0909 35.5015C31.9931 35.5913 31.9151 35.7001 31.8618 35.8211C31.8085 35.9421 31.7809 36.0727 31.7809 36.2047C31.7809 36.3367 31.8085 36.4673 31.8618 36.5883C31.9151 36.7093 31.9931 36.8181 32.0909 36.908C32.1887 36.9978 32.3042 37.0667 32.4301 37.1103C32.556 37.154 32.6897 37.1715 32.8227 37.1617Z" fill="white"/>
<path d="M32.8227 30.149H39.2551C39.3881 30.1588 39.5218 30.1413 39.6477 30.0976C39.7736 30.054 39.8891 29.9851 39.9869 29.8953C40.0847 29.8055 40.1627 29.6966 40.216 29.5756C40.2693 29.4546 40.2969 29.324 40.2969 29.192C40.2969 29.06 40.2693 28.9294 40.216 28.8084C40.1627 28.6874 40.0847 28.5786 39.9869 28.4888C39.8891 28.399 39.7736 28.3301 39.6477 28.2864C39.5218 28.2428 39.3881 28.2253 39.2551 28.2351H32.8227C32.6897 28.2253 32.556 28.2428 32.4301 28.2864C32.3042 28.3301 32.1887 28.399 32.0909 28.4888C31.9931 28.5786 31.9151 28.6874 31.8618 28.8084C31.8085 28.9294 31.7809 29.06 31.7809 29.192C31.7809 29.324 31.8085 29.4546 31.8618 29.5756C31.9151 29.6966 31.9931 29.8055 32.0909 29.8953C32.1887 29.9851 32.3042 30.054 32.4301 30.0976C32.556 30.1413 32.6897 30.1588 32.8227 30.149Z" fill="white"/>
<path d="M25.7189 35.2471H19.2811C19.037 35.265 18.8088 35.3736 18.6422 35.5511C18.4756 35.7286 18.3831 35.9619 18.3831 36.2041C18.3831 36.4463 18.4756 36.6795 18.6422 36.857C18.8088 37.0345 19.037 37.1431 19.2811 37.161H25.7189C25.963 37.1431 26.1912 37.0345 26.3578 36.857C26.5244 36.6795 26.6169 36.4463 26.6169 36.2041C26.6169 35.9619 26.5244 35.7286 26.3578 35.5511C26.1912 35.3736 25.963 35.265 25.7189 35.2471Z" fill="white"/>
<path d="M22.0364 32.7532C22.1788 32.8293 22.3381 32.8692 22.5 32.8692C22.6619 32.8692 22.8212 32.8293 22.9636 32.7532C25.4524 31.4139 27.227 29.8954 28.2929 28.2451C28.7423 27.6098 29.0523 26.8885 29.2029 26.1275C29.3534 25.3665 29.3411 24.5827 29.1669 23.8266C28.9611 22.9309 28.4597 22.1284 27.7417 21.546C27.0237 20.9636 26.1301 20.6344 25.2019 20.6104C24.1888 20.6194 23.22 21.0228 22.5053 21.7334C21.7907 21.0228 20.8219 20.6194 19.8087 20.6104C18.8806 20.6344 17.987 20.9636 17.269 21.546C16.551 22.1284 16.0495 22.9309 15.8438 23.8266C15.6695 24.5827 15.6573 25.3665 15.8078 26.1275C15.9583 26.8885 16.2683 27.6098 16.7178 28.2451C17.757 29.8954 19.5476 31.4139 22.0364 32.7532ZM17.7144 24.317C17.8185 23.8362 18.0793 23.4024 18.4567 23.0824C18.8341 22.7624 19.3072 22.5737 19.8034 22.5454C20.1979 22.5679 20.5792 22.6941 20.908 22.911C21.2368 23.1279 21.5012 23.4276 21.674 23.7792C21.7583 23.9215 21.879 24.0394 22.0241 24.1209C22.1691 24.2023 22.3332 24.2445 22.5 24.2432C22.6664 24.2429 22.83 24.2001 22.9747 24.1188C23.1195 24.0375 23.2405 23.9205 23.326 23.7792C23.501 23.4293 23.766 23.131 24.0943 22.9145C24.4226 22.6979 24.8028 22.5706 25.1966 22.5454C25.6932 22.5743 26.1666 22.7631 26.5447 23.0829C26.9228 23.4028 27.1849 23.8361 27.291 24.317C27.4935 25.1079 27.7226 27.8602 22.4947 30.8392C17.2774 27.8391 17.5065 25.0868 17.7144 24.2959V24.317Z" fill="white"/>
</g>
<defs>
<clipPath id="clip0_40_21">
<rect width="45" height="44" fill="white"/>
</clipPath>
</defs>
</svg>
