<svg width="33" height="45" viewBox="0 0 33 45" fill="none" xmlns="http://www.w3.org/2000/svg">
<g clip-path="url(#clip0_5_94)">
<path d="M20.2676 26.2972C19.5655 26.5058 18.8442 26.6423 18.1147 26.7045C17.5869 27.9506 16.7409 29.034 15.6626 29.8447C14.5843 30.6555 13.3121 31.1647 11.9751 31.3208C10.638 31.4769 9.28373 31.2743 8.04964 30.7335C6.81555 30.1927 5.74558 29.333 4.94831 28.2416C4.15105 27.1502 3.65486 25.866 3.51011 24.5193C3.36536 23.1726 3.57719 21.8114 4.12411 20.5737C4.67103 19.336 5.53357 18.2659 6.6242 17.472C7.71484 16.6782 8.99474 16.1888 10.334 16.0536C10.5924 16.0276 10.855 16.0146 11.1177 16.0146C12.7612 16.0178 14.36 16.5528 15.6781 17.5406C16.9963 18.5285 17.9637 19.9167 18.4376 21.5004C19.0604 21.3737 19.6602 21.1515 20.2159 20.8417C19.6144 18.8906 18.4078 17.1846 16.7729 15.9736C15.1379 14.7626 13.1606 14.1103 11.1306 14.1123C10.9928 14.1123 10.855 14.1123 10.7216 14.1123C8.38057 14.2072 6.15639 15.1667 4.47391 16.8075C2.79143 18.4483 1.76859 20.6554 1.6008 23.0071C1.43301 25.3588 2.13202 27.6902 3.5643 29.5561C4.99658 31.422 7.06172 32.6914 9.36521 33.1219C9.54387 33.1561 9.70514 33.2518 9.8214 33.3925C9.93767 33.5332 10.0017 33.7102 10.0025 33.8932V37.0348C10.0025 37.244 9.91992 37.4445 9.77295 37.5924C9.62598 37.7403 9.42666 37.8234 9.21882 37.8234H6.48891C6.35943 37.8146 6.22953 37.8327 6.10728 37.8765C5.98502 37.9203 5.87302 37.989 5.77821 38.0781C5.6834 38.1673 5.60781 38.2752 5.55614 38.395C5.50446 38.5148 5.47779 38.644 5.47779 38.7746C5.47779 38.9052 5.50446 39.0344 5.55614 39.1542C5.60781 39.274 5.6834 39.3818 5.77821 39.471C5.87302 39.5602 5.98502 39.6288 6.10728 39.6726C6.22953 39.7164 6.35943 39.7345 6.48891 39.7257H9.19298C9.40082 39.7257 9.60015 39.8088 9.74711 39.9567C9.89408 40.1046 9.97664 40.3052 9.97664 40.5143V42.4643C9.99287 42.7065 10.0999 42.9336 10.2762 43.0994C10.4525 43.2653 10.6848 43.3575 10.9261 43.3575C11.1674 43.3575 11.3997 43.2653 11.5759 43.0994C11.7522 42.9336 11.8593 42.7065 11.8755 42.4643V40.523C11.875 40.4196 11.8947 40.3172 11.9336 40.2215C11.9725 40.1259 12.0298 40.0389 12.1023 39.9656C12.1747 39.8923 12.2608 39.8342 12.3556 39.7945C12.4505 39.7548 12.5522 39.7344 12.6549 39.7344H15.501C15.7527 39.7344 15.9941 39.6341 16.1724 39.4554C16.3507 39.2768 16.4515 39.0343 16.4526 38.7811C16.4538 38.6554 16.4299 38.5307 16.3824 38.4145C16.3349 38.2983 16.2647 38.1928 16.176 38.1043C16.0873 38.0159 15.9818 37.9462 15.8659 37.8994C15.75 37.8527 15.6259 37.8298 15.501 37.8321H12.6549C12.5522 37.8321 12.4505 37.8117 12.3556 37.772C12.2608 37.7323 12.1747 37.6741 12.1023 37.6009C12.0298 37.5276 11.9725 37.4406 11.9336 37.3449C11.8947 37.2493 11.875 37.1468 11.8755 37.0435V33.9626C11.8754 33.7743 11.9421 33.5922 12.0637 33.4492C12.1853 33.3061 12.3538 33.2116 12.5386 33.1826C14.3466 32.8997 16.036 32.1005 17.406 30.88C18.7761 29.6595 19.7693 28.0689 20.2676 26.2972Z" fill="#F4C575"/>
<path d="M32.9914 2.33523C32.9469 1.72532 32.6837 1.15246 32.2508 0.72329C31.9868 0.47353 31.6751 0.280546 31.3345 0.156126C30.994 0.0317059 30.6318 -0.021537 30.2701 -0.00035019H24.1127C23.4644 0.029818 22.8527 0.3111 22.4057 0.78466C21.9587 1.25822 21.711 1.88738 21.7143 2.54053C21.7176 3.19369 21.9718 3.82025 22.4236 4.28916C22.8755 4.75807 23.4899 5.033 24.1386 5.05646H24.2721L23.1353 6.20042C21.5967 5.20296 19.8364 4.60465 18.0119 4.45897C16.1873 4.31329 14.3553 4.62477 12.6796 5.36557C11.0039 6.10638 9.5367 7.25343 8.40907 8.70423C7.28144 10.155 6.52853 11.8644 6.21764 13.6795C4.17258 14.6846 2.48444 16.2988 1.38243 18.3028C0.280421 20.3068 -0.18207 22.6036 0.0577544 24.8812C0.297578 27.1588 1.2281 29.307 2.72297 31.0341C4.21784 32.7612 6.20465 33.9835 8.41362 34.535V36.2683H6.48891C6.15079 36.2542 5.81333 36.309 5.49681 36.4295C5.18029 36.55 4.89125 36.7337 4.64705 36.9694C4.40285 37.2052 4.20855 37.4882 4.07582 37.8015C3.94308 38.1148 3.87466 38.4518 3.87466 38.7924C3.87466 39.1329 3.94308 39.47 4.07582 39.7832C4.20855 40.0965 4.40285 40.3795 4.64705 40.6153C4.89125 40.8511 5.18029 41.0347 5.49681 41.1552C5.81333 41.2757 6.15079 41.3306 6.48891 41.3165H8.41362V42.4647C8.44047 43.1172 8.71691 43.734 9.18515 44.1861C9.65339 44.6382 10.2772 44.8906 10.9261 44.8906C11.575 44.8906 12.1988 44.6382 12.667 44.1861C13.1353 43.734 13.4117 43.1172 13.4385 42.4647V41.2948H15.501C15.8392 41.3089 16.1766 41.254 16.4931 41.1336C16.8097 41.0131 17.0987 40.8294 17.3429 40.5936C17.5871 40.3579 17.7814 40.0748 17.9141 39.7616C18.0469 39.4483 18.1153 39.1113 18.1153 38.7707C18.1153 38.4302 18.0469 38.0931 17.9141 37.7798C17.7814 37.4666 17.5871 37.1836 17.3429 36.9478C17.0987 36.712 16.8097 36.5284 16.4931 36.4079C16.1766 36.2874 15.8392 36.2325 15.501 36.2466H13.4385V34.6174C15.595 34.1412 17.5624 33.0312 19.091 31.4281C20.6196 29.825 21.6406 27.801 22.0244 25.613C23.4037 24.9305 24.6274 23.9675 25.618 22.7848C26.6087 21.6022 27.3447 20.2255 27.7798 18.742C28.2148 17.2584 28.3393 15.7002 28.1453 14.1658C27.9514 12.6313 27.4433 11.154 26.6532 9.82729L27.988 8.50134V8.88265C28.0148 9.53512 28.2913 10.1519 28.7595 10.604C29.2278 11.0561 29.8516 11.3085 30.5005 11.3085C31.1494 11.3085 31.7732 11.0561 32.2414 10.604C32.7096 10.1519 32.9861 9.53512 33.0129 8.88265V2.44789C33.0103 2.4096 33.0031 2.37177 32.9914 2.33523ZM12.5386 33.1831C12.3538 33.2121 12.1853 33.3066 12.0637 33.4496C11.9421 33.5927 11.8754 33.7748 11.8755 33.9631V37.0439C11.875 37.1473 11.8947 37.2498 11.9336 37.3454C11.9725 37.4411 12.0298 37.528 12.1023 37.6013C12.1747 37.6746 12.2608 37.7328 12.3556 37.7725C12.4505 37.8122 12.5522 37.8326 12.6549 37.8326H15.501C15.6259 37.8303 15.75 37.8532 15.8659 37.8999C15.9818 37.9467 16.0873 38.0163 16.176 38.1048C16.2647 38.1933 16.3349 38.2987 16.3824 38.415C16.4299 38.5312 16.4538 38.6559 16.4526 38.7815C16.4515 39.0348 16.3507 39.2772 16.1724 39.4559C15.9941 39.6345 15.7527 39.7348 15.501 39.7348H12.6549C12.5522 39.7348 12.4505 39.7553 12.3556 39.795C12.2608 39.8346 12.1747 39.8928 12.1023 39.9661C12.0298 40.0394 11.9725 40.1264 11.9336 40.222C11.8947 40.3177 11.875 40.4201 11.8755 40.5235V42.4647C11.8593 42.707 11.7522 42.9341 11.576 43.0999C11.3997 43.2657 11.1674 43.358 10.9261 43.358C10.6848 43.358 10.4525 43.2657 10.2762 43.0999C10.1 42.9341 9.99287 42.707 9.97665 42.4647V40.5235C9.97665 40.3143 9.89408 40.1137 9.74712 39.9658C9.60015 39.8179 9.40082 39.7348 9.19298 39.7348H6.48891C6.35943 39.7436 6.22953 39.7256 6.10728 39.6818C5.98502 39.6379 5.87302 39.5693 5.77821 39.4801C5.6834 39.391 5.60782 39.2831 5.55614 39.1633C5.50446 39.0435 5.4778 38.9143 5.4778 38.7837C5.4778 38.6531 5.50446 38.5239 5.55614 38.4041C5.60782 38.2843 5.6834 38.1765 5.77821 38.0873C5.87302 37.9981 5.98502 37.9295 6.10728 37.8857C6.22953 37.8419 6.35943 37.8238 6.48891 37.8326H9.19298C9.40082 37.8326 9.60015 37.7495 9.74712 37.6016C9.89408 37.4537 9.97665 37.2531 9.97665 37.0439V33.9024C9.97585 33.7194 9.91184 33.5424 9.79557 33.4016C9.67931 33.2609 9.51803 33.1653 9.33938 33.1311C7.04293 32.6924 4.98665 31.42 3.56135 29.5556C2.13604 27.6913 1.44105 25.3649 1.60845 23.0186C1.77586 20.6724 2.79399 18.4698 4.46936 16.8295C6.14473 15.1892 8.36055 14.2254 10.6957 14.1215C10.8292 14.1215 10.967 14.1215 11.1048 14.1215C13.1337 14.1189 15.1102 14.7699 16.745 15.9793C18.3798 17.1886 19.587 18.8927 20.1901 20.8422C19.6343 21.152 19.0346 21.3742 18.4118 21.5009C17.9355 19.9226 16.9686 18.5397 15.6534 17.5553C14.3381 16.571 12.7438 16.0372 11.1048 16.0324C10.8421 16.0324 10.5795 16.0324 10.3211 16.0714C8.979 16.207 7.6965 16.6978 6.60401 17.494C5.51152 18.2901 4.648 19.3632 4.10125 20.6041C3.5545 21.845 3.34402 23.2095 3.49121 24.5588C3.63839 25.9081 4.138 27.1941 4.93922 28.2861C5.74045 29.3781 6.81473 30.2371 8.05282 30.7758C9.29092 31.3145 10.6487 31.5137 11.9881 31.353C13.3274 31.1924 14.6007 30.6777 15.6783 29.8613C16.7559 29.0449 17.5995 27.9559 18.1233 26.705C18.8528 26.6427 19.5741 26.5063 20.2762 26.2977C19.7773 28.0706 18.7828 29.662 17.4111 30.8826C16.0394 32.1033 14.3482 32.9017 12.5386 33.1831ZM11.1048 29.8162C9.9106 29.8165 8.74277 29.463 7.74702 28.7996C6.75126 28.1363 5.97167 27.1925 5.50553 26.0861C5.0394 24.9796 4.90735 23.7596 5.12588 22.5781C5.34441 21.3967 5.90384 20.3061 6.73434 19.4426C7.47164 21.4605 8.77254 23.2211 10.4806 24.5125C12.1886 25.804 14.2311 26.5714 16.3622 26.7223C15.8343 27.6583 15.0701 28.4374 14.1469 28.9807C13.2237 29.524 12.1742 29.8122 11.1048 29.8162ZM16.7928 21.6222C15.3059 21.5523 13.8963 20.9355 12.8314 19.8889C12.1847 19.24 11.693 18.4518 11.3933 17.5837C12.5879 17.649 13.7369 18.0668 14.6971 18.785C15.6573 19.5031 16.3862 20.4899 16.7928 21.6222ZM11.8583 12.5659C12.1291 12.0899 12.4622 11.6527 12.8486 11.2659C13.9896 10.1699 15.5096 9.56384 17.0869 9.57594C18.6641 9.58804 20.1748 10.2174 21.299 11.3307C22.4232 12.4441 23.0728 13.954 23.1101 15.5409C23.1475 17.1277 22.5697 18.6669 21.4991 19.8326C20.7617 17.8134 19.4587 16.0525 17.7477 14.7629C16.0368 13.4732 13.9912 12.7101 11.8583 12.5659ZM31.4327 8.88265C31.4165 9.12494 31.3094 9.35197 31.1331 9.51781C30.9568 9.68365 30.7245 9.7759 30.4832 9.7759C30.2419 9.7759 30.0096 9.68365 29.8334 9.51781C29.6571 9.35197 29.55 9.12494 29.5338 8.88265V6.60774C29.5305 6.45459 29.4827 6.30577 29.3963 6.17964C29.3099 6.05352 29.1887 5.95561 29.0477 5.898C28.9067 5.8404 28.7519 5.82562 28.6026 5.85549C28.4534 5.88536 28.316 5.95857 28.2076 6.06609L25.1031 9.15998C24.9739 9.28976 24.8941 9.46104 24.8776 9.64397C24.8611 9.82689 24.9089 10.0098 25.0127 10.1609C25.9905 11.6031 26.5591 13.2862 26.6573 15.0293C26.7556 16.7724 26.3797 18.5094 25.5702 20.0536C24.7607 21.5978 23.5482 22.8906 22.0631 23.7931C20.578 24.6955 18.8764 25.1734 17.1416 25.1754C15.1053 25.177 13.1222 24.5213 11.4838 23.3045C9.84532 22.0878 8.63792 20.3742 8.03902 18.4156C8.58939 18.0941 9.18658 17.8616 9.80872 17.7267C10.1655 18.9702 10.8309 20.102 11.742 21.0155C13.1872 22.4211 15.1232 23.1992 17.133 23.1821C19.1472 23.2026 21.0884 22.4243 22.5368 21.0155C23.3313 20.2143 23.94 19.2464 24.3195 18.1809C24.699 17.1154 24.8399 15.9787 24.732 14.852C24.6242 13.7254 24.2703 12.6366 23.6957 11.6636C23.121 10.6906 22.3399 9.85743 21.408 9.22359C20.4762 8.58976 19.4167 8.17096 18.3053 7.99714C17.1939 7.82331 16.0581 7.89877 14.9791 8.2181C13.9 8.53743 12.9044 9.09276 12.0635 9.84436C11.2225 10.596 10.557 11.5253 10.1144 12.5659C9.38535 12.6309 8.6643 12.7673 7.96151 12.9732C8.37899 11.4817 9.14956 10.1143 10.2072 8.98814C11.2648 7.862 12.578 7.01069 14.0342 6.50716C15.4904 6.00363 17.0462 5.86289 18.5683 6.097C20.0904 6.33111 21.5334 6.93309 22.7736 7.85136C22.9218 7.96696 23.1062 8.02529 23.2934 8.01575C23.4807 8.00621 23.6583 7.92943 23.7941 7.79936L26.7565 4.81814C26.8687 4.70757 26.9453 4.56563 26.9764 4.41072C27.0075 4.2558 26.9916 4.09507 26.9308 3.94936C26.87 3.80365 26.7671 3.67968 26.6355 3.59352C26.5038 3.50737 26.3495 3.46301 26.1925 3.46619H24.1989C24.0695 3.47777 23.9391 3.46258 23.8158 3.42154C23.6924 3.3805 23.5788 3.31449 23.4818 3.22757C23.3847 3.14065 23.3064 3.03466 23.2517 2.91613C23.1969 2.7976 23.1668 2.66904 23.1633 2.53837C23.1597 2.4077 23.1828 2.27769 23.2311 2.15634C23.2794 2.03499 23.3519 1.92487 23.444 1.83277C23.5362 1.74067 23.6462 1.66853 23.7671 1.6208C23.888 1.57308 24.0174 1.55077 24.1472 1.55526H30.2658C30.4197 1.53798 30.5754 1.55251 30.7235 1.59796C30.8716 1.64342 31.0089 1.71883 31.127 1.81958C31.3093 1.99312 31.4187 2.23036 31.4327 2.48256V8.88265Z" fill="white"/>
</g>
<defs>
<clipPath id="clip0_5_94">
<rect width="33" height="45" fill="white"/>
</clipPath>
</defs>
</svg>
