<svg width="50" height="51" viewBox="0 0 50 51" fill="none" xmlns="http://www.w3.org/2000/svg">
<path d="M46.5476 19.937C46.5151 19.9034 46.4764 19.8768 46.4337 19.8586C46.3911 19.8404 46.3453 19.8311 46.299 19.8311C46.2528 19.8311 46.207 19.8404 46.1644 19.8586C46.1217 19.8768 46.083 19.9034 46.0505 19.937L38.2321 26.8704C38.1731 26.8947 38.1225 26.9363 38.0866 26.99C38.0508 27.0436 38.0313 27.1069 38.0306 27.1718C38.0236 28.0148 37.843 28.8468 37.5005 29.614C37.158 30.3811 36.6613 31.0663 36.0425 31.6251L34.2558 33.2556C34.1885 33.3249 34.1508 33.4185 34.1508 33.516C34.1508 33.6135 34.1885 33.707 34.2558 33.7763C34.3302 33.8434 34.4252 33.8822 34.5245 33.8859C34.612 33.8881 34.6975 33.859 34.7663 33.8037L36.5529 32.1732C37.2058 31.5638 37.7341 30.8288 38.1076 30.0105C38.481 29.1921 38.6923 28.3066 38.7292 27.4047L46.5207 20.5536C46.5721 20.5222 46.6151 20.4782 46.6458 20.4257C46.6765 20.3732 46.694 20.3137 46.6966 20.2527C46.6993 20.1916 46.6871 20.1308 46.6611 20.0757C46.635 20.0206 46.596 19.9729 46.5476 19.937Z" fill="#68324A"/>
<path d="M11.9694 27.1716C11.9636 27.1133 11.9433 27.0575 11.9104 27.0096C11.8774 26.9616 11.833 26.923 11.7813 26.8976L3.9495 19.9094C3.87705 19.8532 3.78655 19.8269 3.69596 19.8356C3.60537 19.8443 3.52129 19.8874 3.46042 19.9564C3.39955 20.0254 3.36632 20.1152 3.36733 20.208C3.36834 20.3008 3.40352 20.3899 3.46588 20.4575L11.2708 27.3086C11.2882 28.2268 11.489 29.1317 11.8609 29.9681C12.2328 30.8044 12.7679 31.5547 13.4336 32.1729L15.1263 33.7213C15.2386 33.4992 15.4051 33.3104 15.6099 33.1732L13.9038 31.6249C13.2974 31.059 12.8124 30.3713 12.4795 29.6048C12.1465 28.8384 11.9729 28.0099 11.9694 27.1716ZM35.7066 34.2557L28.8823 28.0074C28.8144 27.9388 28.7227 27.9003 28.6271 27.9003C28.5315 27.9003 28.4398 27.9388 28.3719 28.0074C28.3077 28.0783 28.272 28.1713 28.272 28.2678C28.272 28.3643 28.3077 28.4572 28.3719 28.5281L35.1961 34.7353C35.3158 34.8423 35.4133 34.9726 35.483 35.1185C35.5527 35.2645 35.593 35.4231 35.6018 35.5852C35.6106 35.7473 35.5875 35.9095 35.534 36.0624C35.4805 36.2153 35.3976 36.3557 35.2902 36.4755C35.1856 36.5976 35.0579 36.6969 34.9148 36.7676C34.7717 36.8382 34.6161 36.8787 34.4573 36.8865C34.1342 36.8937 33.8194 36.7818 33.5707 36.5714L33.2751 36.311L26.115 29.8161C26.0825 29.7826 26.0438 29.7559 26.0012 29.7378C25.9585 29.7196 25.9127 29.7102 25.8665 29.7102C25.8202 29.7102 25.7745 29.7196 25.7318 29.7378C25.6891 29.7559 25.6504 29.7826 25.618 29.8161C25.5507 29.8854 25.5129 29.979 25.5129 30.0765C25.5129 30.174 25.5507 30.2676 25.618 30.3368L32.5094 36.5988L32.7781 36.8317C32.9916 37.0609 33.1107 37.3651 33.1107 37.6813C33.1107 37.9975 32.9916 38.3016 32.7781 38.5308C32.5637 38.7769 32.2626 38.9266 31.9405 38.9471C31.6183 38.9676 31.3013 38.8574 31.0586 38.6404L24.5164 32.6936C24.4485 32.625 24.3567 32.5865 24.2612 32.5865C24.1656 32.5865 24.0738 32.625 24.0059 32.6936C23.9417 32.7645 23.9061 32.8575 23.9061 32.954C23.9061 33.0505 23.9417 33.1434 24.0059 33.2143L29.9302 38.5993C30.1706 38.8174 30.3164 39.1239 30.3353 39.4516C30.3542 39.7792 30.2447 40.1011 30.0309 40.3464C29.8171 40.5917 29.5166 40.7403 29.1954 40.7596C28.8742 40.7789 28.5586 40.6672 28.3181 40.4491L26.7867 39.0789L26.3568 38.6952C26.363 38.759 26.363 38.8233 26.3568 38.8871C26.364 38.9416 26.364 38.9969 26.3568 39.0515C26.3303 39.0451 26.3027 39.0451 26.2762 39.0515C26.2334 39.1137 26.2105 39.1879 26.2105 39.2639C26.2105 39.3399 26.2334 39.414 26.2762 39.4763L26.3434 39.5448C26.5892 39.7556 26.7429 40.0573 26.7706 40.3837C26.7983 40.71 26.6978 41.0342 26.4911 41.285C26.3888 41.4091 26.2635 41.5115 26.1224 41.5863C25.9813 41.6611 25.8271 41.7068 25.6687 41.7207C25.3488 41.749 25.0309 41.6465 24.7851 41.4357C24.6509 41.6484 24.466 41.8228 24.2477 41.9427C24.6175 42.2758 25.098 42.4523 25.5911 42.436H25.6986C25.9549 42.4271 26.2066 42.3641 26.4379 42.2509C26.6691 42.1376 26.8748 41.9767 27.0419 41.7783C27.339 41.4426 27.5103 41.0107 27.5255 40.5588L27.942 40.9424C28.3138 41.272 28.7929 41.4479 29.2853 41.4357C29.5572 41.4377 29.8262 41.38 30.0743 41.2665C30.3223 41.153 30.5434 40.9864 30.7227 40.778C30.8881 40.5935 31.016 40.3775 31.0991 40.1423C31.1821 39.9071 31.2185 39.6574 31.2063 39.4078C31.4516 39.5203 31.7166 39.5809 31.9855 39.5859C32.2573 39.5879 32.5264 39.5302 32.7744 39.4167C33.0224 39.3032 33.2436 39.1366 33.4229 38.9282C33.5989 38.7259 33.7326 38.4891 33.8158 38.2323C33.8989 37.9755 33.9298 37.704 33.9065 37.4346C34.0728 37.483 34.2442 37.5106 34.417 37.5168H34.5379C35.0161 37.4867 35.4663 37.2766 35.8013 36.9273C36.1364 36.5779 36.3324 36.1142 36.3514 35.6259C36.3427 35.3645 36.2809 35.1077 36.1699 34.8718C36.0589 34.636 35.9012 34.4262 35.7066 34.2557ZM24.3149 22.0332C24.3958 22.0321 24.474 22.0034 24.5371 21.9518C24.6002 21.9001 24.6445 21.8284 24.6631 21.748C24.6816 21.6677 24.6733 21.5834 24.6394 21.5084C24.6055 21.4335 24.548 21.3722 24.4761 21.3344L23.9253 21.0604C23.0205 20.6134 22.0289 20.3793 21.0236 20.3753H17.3294L9.52446 13.5241C9.45654 13.4555 9.36481 13.417 9.26922 13.417C9.17362 13.417 9.0819 13.4555 9.01398 13.5241C8.94978 13.595 8.91412 13.6879 8.91412 13.7844C8.91412 13.8809 8.94978 13.9739 9.01398 14.0448L16.913 21.0467H16.9801H17.101H20.943C21.841 21.0572 22.7258 21.2676 23.5357 21.6633L24.0865 21.9373C24.1143 21.9708 24.1495 21.9969 24.1893 22.0136C24.229 22.0303 24.2721 22.037 24.3149 22.0332Z" fill="#68324A"/>
<path d="M40.9726 13.4694C40.9047 13.4008 40.8129 13.3623 40.7174 13.3623C40.6218 13.3623 40.53 13.4008 40.4621 13.4694L32.6572 20.3206L26.7732 20.3891C25.7883 20.3923 24.8363 20.7516 24.0865 21.403L19.425 25.363C19.0521 25.7334 18.8287 26.2329 18.7988 26.763C18.769 27.293 18.9349 27.8153 19.2638 28.2268C19.4626 28.4853 19.7151 28.6956 20.0031 28.8425C20.2912 28.9894 20.6076 29.0693 20.9296 29.0763C21.3093 29.0732 21.6809 28.9642 22.0043 28.7612L25.0134 26.5688C26.118 27.1352 27.3371 27.4302 28.5733 27.4302C29.8096 27.4302 31.0287 27.1352 32.1333 26.5688C32.2081 26.5107 32.2572 26.4246 32.2698 26.3295C32.2824 26.2344 32.2574 26.1382 32.2004 26.0618C32.1434 25.9855 32.059 25.9354 31.9658 25.9226C31.8726 25.9097 31.7782 25.9352 31.7034 25.9933C30.6879 26.5009 29.5685 26.7545 28.4378 26.7331C27.3072 26.7116 26.1978 26.4158 25.2015 25.87C25.1419 25.8294 25.0717 25.8077 25 25.8077C24.9283 25.8077 24.8581 25.8294 24.7985 25.87L21.6147 28.1994C21.3189 28.3647 20.9748 28.4163 20.6448 28.345C20.3148 28.2737 20.0208 28.0842 19.8161 27.8107C19.6114 27.5373 19.5095 27.1981 19.5289 26.8546C19.5484 26.5111 19.6879 26.1861 19.9221 25.9385L24.5433 21.9922C25.1622 21.4663 25.9408 21.1758 26.7464 21.1701L32.7646 21.0879H32.8855L40.798 14.086C40.86 14.0706 40.9169 14.0387 40.963 13.9936C41.009 13.9485 41.0426 13.8919 41.0603 13.8293C41.0781 13.7667 41.0793 13.7005 41.0639 13.6373C41.0485 13.5741 41.017 13.5162 40.9726 13.4694Z" fill="#68324A"/>
<path d="M26.0747 37.7497C25.7271 37.447 25.2822 37.286 24.8254 37.2975C25.004 37.0049 25.1021 36.6686 25.1093 36.324C25.1164 35.9794 25.0324 35.6392 24.8661 35.3391C24.6998 35.0391 24.4573 34.7903 24.1641 34.6189C23.8708 34.4475 23.5378 34.3599 23.1999 34.3652C23.4333 33.9751 23.5236 33.5133 23.4547 33.0617C23.3859 32.6102 23.1623 32.1981 22.8237 31.8988C22.4856 31.6102 22.0625 31.4453 21.6219 31.4304C21.1812 31.4155 20.7484 31.5515 20.3923 31.8166C20.331 31.3572 20.1121 30.9348 19.7743 30.6245C19.3862 30.3051 18.8945 30.1461 18.3969 30.1791C17.8992 30.2121 17.4319 30.4346 17.0876 30.8026L14.777 33.5431C14.4448 33.9305 14.2767 34.4365 14.3094 34.9501C14.3422 35.4637 14.5731 35.9432 14.9516 36.2835C15.3026 36.5926 15.7507 36.7628 16.2144 36.7631C16.3614 36.7849 16.5107 36.7849 16.6577 36.7631C16.651 36.8726 16.651 36.9825 16.6577 37.092C16.6664 37.3534 16.7282 37.6102 16.8392 37.8461C16.9502 38.0819 17.108 38.2917 17.3025 38.4622C17.6496 38.7795 18.0992 38.9551 18.5653 38.9555C18.7154 38.9528 18.8645 38.9298 19.0086 38.887C18.9782 39.1585 19.0046 39.4335 19.0861 39.6938C19.1675 39.9541 19.3022 40.1939 19.4813 40.3972C19.6603 40.6005 19.8795 40.7628 20.1246 40.8733C20.3696 40.9838 20.6348 41.04 20.9027 41.0382C21.0498 41.0584 21.1989 41.0584 21.346 41.0382C21.31 41.3483 21.3486 41.6626 21.4587 41.9539C21.5687 42.2452 21.7468 42.5047 21.9774 42.7099C22.1647 42.8794 22.3831 43.0093 22.6199 43.0921C22.8568 43.175 23.1074 43.2091 23.3572 43.1925C23.6071 43.176 23.8512 43.109 24.0755 42.9956C24.2999 42.8822 24.4999 42.7246 24.6642 42.5318L26.2628 40.6683C26.4546 40.4724 26.6032 40.237 26.6987 39.9779C26.7943 39.7188 26.8345 39.4418 26.8167 39.1655C26.7989 38.8893 26.7235 38.6201 26.5955 38.3759C26.4676 38.1318 26.29 37.9183 26.0747 37.7497ZM15.4084 35.708C15.17 35.4941 15.0237 35.1931 15.0011 34.8701C14.9785 34.547 15.0813 34.2279 15.2875 33.9815L17.5981 31.2411C17.711 31.107 17.8512 30.9995 18.009 30.9262C18.1667 30.8528 18.3382 30.8153 18.5115 30.8163C18.8019 30.8209 19.0818 30.9273 19.3041 31.1178C19.5329 31.3433 19.6757 31.6444 19.7071 31.9673C19.7201 32.2871 19.6146 32.6002 19.4116 32.8443L17.3428 35.2559L17.101 35.5436C16.8913 35.7839 16.6003 35.9343 16.2863 35.9648C15.9724 35.9953 15.6588 35.9036 15.4084 35.708ZM17.7458 37.8045C17.6271 37.6999 17.5302 37.572 17.461 37.4284C17.3917 37.2848 17.3516 37.1284 17.3428 36.9687C17.3295 36.8075 17.3489 36.6452 17.3997 36.492C17.4506 36.3387 17.5318 36.1978 17.6384 36.078L17.7996 35.8862L20.6609 32.5565C20.765 32.436 20.8914 32.3375 21.0328 32.2667C21.1741 32.196 21.3278 32.1543 21.485 32.1441C21.6422 32.134 21.7998 32.1555 21.9488 32.2074C22.0978 32.2593 22.2354 32.3407 22.3536 32.4469C22.4718 32.5531 22.5683 32.6819 22.6377 32.8261C22.707 32.9704 22.7479 33.1271 22.7579 33.2874C22.7678 33.4478 22.7468 33.6085 22.6958 33.7605C22.6449 33.9125 22.5651 34.0528 22.461 34.1734L21.7491 34.9955L19.4385 37.736C19.2164 37.9622 18.9189 38.0948 18.6053 38.1075C18.2916 38.1202 17.9848 38.012 17.7458 37.8045ZM20.1505 39.9009C20.0318 39.7951 19.9349 39.6663 19.8653 39.5221C19.7956 39.3778 19.7546 39.221 19.7446 39.0605C19.7346 38.9 19.7559 38.7392 19.8071 38.5871C19.8583 38.435 19.9384 38.2948 20.043 38.1745L22.367 35.434C22.4782 35.3059 22.6147 35.203 22.7674 35.1322C22.9202 35.0614 23.0858 35.0241 23.2536 35.0229C23.5475 35.0213 23.8309 35.134 24.0462 35.3381C24.1648 35.444 24.2618 35.5727 24.3314 35.717C24.401 35.8612 24.442 36.0181 24.452 36.1785C24.462 36.339 24.4408 36.4999 24.3896 36.6519C24.3384 36.804 24.2582 36.9442 24.1537 37.0646L23.4417 37.8867L21.7759 39.7365C21.5694 39.9584 21.2916 40.097 20.9932 40.1272C20.6947 40.1574 20.3956 40.0771 20.1505 39.9009ZM25.7791 40.0243L24.1805 41.8878C23.9637 42.1199 23.669 42.2601 23.3553 42.2804C23.0415 42.3008 22.7318 42.1997 22.4879 41.9974C22.2515 41.7816 22.1077 41.4796 22.0876 41.1566C22.0675 40.8336 22.1727 40.5155 22.3804 40.2709L23.9119 38.3663C24.016 38.2457 24.1423 38.1473 24.2837 38.0765C24.4251 38.0057 24.5788 37.9641 24.7359 37.9539C24.8931 37.9437 25.0507 37.9652 25.1997 38.0172C25.3488 38.0691 25.4863 38.1505 25.6045 38.2567C25.7227 38.3628 25.8192 38.4917 25.8886 38.6359C25.958 38.7801 25.9988 38.9369 26.0088 39.0972C26.0188 39.2575 25.9977 39.4183 25.9468 39.5703C25.8958 39.7223 25.8161 39.8626 25.712 39.9832L25.7791 40.0243Z" fill="#68324A"/>
<path d="M28.9495 10.9891L27.3106 9.31738L25 11.6742L22.6894 9.31738L21.0505 10.9891L23.3611 13.3459L21.0505 15.7027L22.6894 17.3743L25 15.0175L27.3106 17.3743L28.9495 15.7027L26.6389 13.3459L28.9495 10.9891Z" fill="#68324A"/>
<path d="M25 51C20.0555 51 15.222 49.5045 11.1107 46.7025C6.99951 43.9005 3.7952 39.918 1.90301 35.2584C0.0108169 30.5989 -0.484267 25.4717 0.480364 20.5252C1.44499 15.5787 3.82601 11.035 7.32233 7.46879C10.8186 3.90255 15.2732 1.47391 20.1227 0.489987C24.9723 -0.493936 29.9989 0.0110488 34.5671 1.94108C39.1352 3.87112 43.0397 7.13952 45.7867 11.333C48.5338 15.5264 50 20.4566 50 25.5C49.9929 32.2608 47.3567 38.7426 42.6698 43.5232C37.9829 48.3038 31.6282 50.9928 25 51ZM25 1.02768C20.2547 1.02768 15.616 2.46296 11.6705 5.15202C7.72495 7.84107 4.64977 11.6631 2.83384 16.1349C1.0179 20.6066 0.542773 25.5272 1.46853 30.2743C2.39428 35.0215 4.67934 39.382 8.03475 42.8046C11.3902 46.2271 15.6652 48.5578 20.3193 49.5021C24.9734 50.4464 29.7975 49.9617 34.1815 48.1095C38.5656 46.2572 42.3127 43.1206 44.949 39.0961C47.5853 35.0717 48.9925 30.3402 48.9925 25.5C48.9854 19.0118 46.4553 12.7914 41.9574 8.20347C37.4595 3.61559 31.361 1.03494 25 1.02768Z" fill="#68324A"/>
</svg>
