<svg width="50" height="51" viewBox="0 0 50 51" fill="none" xmlns="http://www.w3.org/2000/svg">
<path d="M13.8501 25.2399L12.238 22.4994C12.1742 22.4071 12.0897 22.3317 11.9916 22.2793C11.8935 22.2269 11.7846 22.199 11.6738 22.198H10.5454C10.4345 22.1978 10.3251 22.2252 10.2269 22.2777C10.1286 22.3302 10.0443 22.4063 9.98119 22.4994L8.36915 25.2399C8.33828 25.2911 8.31761 25.3481 8.30833 25.4076C8.29905 25.467 8.30133 25.5277 8.31505 25.5862C8.32878 25.6448 8.35367 25.7 8.3883 25.7487C8.42294 25.7974 8.46664 25.8387 8.51692 25.8702C8.61846 25.9338 8.74061 25.9536 8.8565 25.9253C8.91388 25.9114 8.968 25.886 9.01576 25.8506C9.06352 25.8153 9.104 25.7707 9.13487 25.7194L9.84685 24.5136V30.94C9.84685 31.0818 9.90205 31.2177 10.0003 31.3179C10.0986 31.4181 10.2318 31.4744 10.3708 31.4744C10.5097 31.4744 10.643 31.4181 10.7412 31.3179C10.8395 31.2177 10.8947 31.0818 10.8947 30.94V27.7063H11.338V30.94C11.3259 31.0164 11.3302 31.0946 11.3506 31.1691C11.371 31.2437 11.4071 31.3128 11.4562 31.3717C11.5054 31.4307 11.5666 31.478 11.6355 31.5104C11.7043 31.5429 11.7793 31.5597 11.8552 31.5597C11.9311 31.5597 12.006 31.5429 12.0749 31.5104C12.1438 31.478 12.2049 31.4307 12.2541 31.3717C12.3033 31.3128 12.3393 31.2437 12.3598 31.1691C12.3802 31.0946 12.3845 31.0164 12.3724 30.94V24.5136L13.0978 25.7194C13.1281 25.7713 13.1683 25.8165 13.216 25.8523C13.2637 25.8881 13.318 25.9138 13.3756 25.9279C13.4332 25.9419 13.493 25.944 13.5514 25.9341C13.6098 25.9242 13.6657 25.9025 13.7157 25.8702C13.811 25.801 13.8775 25.698 13.9023 25.5815C13.9272 25.465 13.9085 25.3432 13.8501 25.2399V25.2399ZM11.0962 21.9924C11.3619 21.9924 11.6216 21.9121 11.8425 21.7615C12.0634 21.6109 12.2356 21.3969 12.3373 21.1465C12.439 20.8962 12.4656 20.6207 12.4137 20.3549C12.3619 20.0891 12.234 19.8449 12.0461 19.6533C11.8582 19.4617 11.6188 19.3312 11.3583 19.2783C11.0977 19.2254 10.8276 19.2525 10.5821 19.3563C10.3366 19.46 10.1268 19.6356 9.97921 19.8609C9.8316 20.0863 9.75282 20.3512 9.75282 20.6222C9.75282 20.9856 9.89435 21.3341 10.1463 21.5911C10.3982 21.8481 10.7399 21.9924 11.0962 21.9924Z" fill="#68324A"/>
<path d="M27.7673 25.2401L26.1553 22.4996C26.0914 22.4074 26.0069 22.3319 25.9088 22.2795C25.8107 22.2271 25.7018 22.1992 25.5911 22.1982H24.4761C24.3654 22.1992 24.2564 22.2271 24.1583 22.2795C24.0602 22.3319 23.9758 22.4074 23.9119 22.4996V22.4996L22.2998 25.2401C22.269 25.2914 22.2483 25.3484 22.239 25.4078C22.2297 25.4672 22.232 25.5279 22.2457 25.5865C22.2735 25.7047 22.3461 25.8068 22.4476 25.8704C22.5492 25.934 22.6713 25.9539 22.7872 25.9256C22.9031 25.8973 23.0032 25.8233 23.0656 25.7197L23.791 24.5139V30.9403C23.7909 31.0797 23.8443 31.2135 23.9396 31.3134C24.035 31.4132 24.1648 31.4711 24.3015 31.4747C24.4393 31.4712 24.5706 31.4138 24.6681 31.3143C24.7657 31.2148 24.822 31.0809 24.8254 30.9403V27.7065H25.2687V30.9403C25.2566 31.0167 25.2609 31.0948 25.2813 31.1694C25.3017 31.2439 25.3378 31.313 25.3869 31.372C25.4361 31.4309 25.4973 31.4782 25.5661 31.5107C25.635 31.5431 25.71 31.5599 25.7859 31.5599C25.8617 31.5599 25.9367 31.5431 26.0056 31.5107C26.0745 31.4782 26.1356 31.4309 26.1848 31.372C26.234 31.313 26.27 31.2439 26.2905 31.1694C26.3109 31.0948 26.3152 31.0167 26.3031 30.9403V24.5139L27.0285 25.7197C27.0908 25.8233 27.191 25.8973 27.3069 25.9256C27.4227 25.9539 27.5449 25.934 27.6464 25.8704C27.748 25.8068 27.8206 25.7047 27.8483 25.5865C27.876 25.4683 27.8566 25.3437 27.7942 25.2401H27.7673ZM25.0134 21.9927C25.2816 22.0063 25.5476 21.9378 25.7772 21.7958C26.0067 21.6538 26.1893 21.4449 26.3014 21.196C26.4134 20.9471 26.4498 20.6697 26.4058 20.3996C26.3618 20.1294 26.2395 19.8789 26.0545 19.6804C25.8696 19.4818 25.6306 19.3444 25.3684 19.2857C25.1061 19.2271 24.8327 19.2499 24.5833 19.3513C24.3338 19.4527 24.12 19.628 23.9692 19.8545C23.8184 20.0811 23.7376 20.3486 23.7372 20.6224C23.7368 20.9743 23.8691 21.3128 24.1067 21.5679C24.3442 21.823 24.6689 21.9751 25.0134 21.9927Z" fill="#68324A"/>
<path d="M41.6443 25.2401L40.0188 22.4996C39.9549 22.4074 39.8704 22.3319 39.7723 22.2795C39.6742 22.2271 39.5653 22.1992 39.4546 22.1982H38.3396C38.2286 22.1981 38.1193 22.2255 38.021 22.278C37.9228 22.3305 37.8385 22.4066 37.7754 22.4996V22.4996L36.1633 25.2401C36.1325 25.2914 36.1118 25.3484 36.1025 25.4078C36.0932 25.4672 36.0955 25.5279 36.1092 25.5865C36.137 25.7047 36.2096 25.8068 36.3111 25.8704C36.4127 25.934 36.5348 25.9539 36.6507 25.9256C36.7666 25.8973 36.8667 25.8233 36.9291 25.7197L37.641 24.5139V30.9403C37.6444 31.0809 37.7007 31.2148 37.7983 31.3143C37.8958 31.4138 38.0271 31.4712 38.165 31.4747C38.3016 31.4711 38.4314 31.4132 38.5268 31.3134C38.6221 31.2135 38.6755 31.0797 38.6754 30.9403V27.7065H39.1322V30.9403C39.1201 31.0167 39.1244 31.0948 39.1448 31.1694C39.1652 31.2439 39.2013 31.313 39.2504 31.372C39.2996 31.4309 39.3608 31.4782 39.4296 31.5107C39.4985 31.5431 39.5735 31.5599 39.6494 31.5599C39.7252 31.5599 39.8002 31.5431 39.8691 31.5107C39.938 31.4782 39.9991 31.4309 40.0483 31.372C40.0975 31.313 40.1335 31.2439 40.154 31.1694C40.1744 31.0948 40.1787 31.0167 40.1666 30.9403V24.5139L40.892 25.7197C40.9223 25.7716 40.9625 25.8168 41.0102 25.8526C41.0579 25.8884 41.1122 25.914 41.1698 25.9281C41.2274 25.9421 41.2871 25.9443 41.3456 25.9344C41.404 25.9245 41.4599 25.9027 41.5099 25.8704C41.6051 25.8012 41.6717 25.6983 41.6965 25.5817C41.7213 25.4652 41.7027 25.3434 41.6443 25.2401V25.2401ZM38.9575 21.9927C39.2257 22.0063 39.4917 21.9378 39.7213 21.7958C39.9508 21.6538 40.1334 21.4449 40.2455 21.196C40.3575 20.9471 40.3939 20.6697 40.3499 20.3996C40.3059 20.1294 40.1836 19.8789 39.9986 19.6804C39.8137 19.4818 39.5747 19.3444 39.3125 19.2857C39.0502 19.2271 38.7768 19.2499 38.5273 19.3513C38.2779 19.4527 38.064 19.628 37.9132 19.8545C37.7625 20.0811 37.6817 20.3486 37.6813 20.6224C37.6809 20.9743 37.8132 21.3128 38.0508 21.5679C38.2883 21.823 38.613 21.9751 38.9575 21.9927Z" fill="#68324A"/>
<path d="M21.0371 36.8729L19.4116 34.1325C19.3463 34.0417 19.2615 33.9674 19.1637 33.9152C19.0659 33.8629 18.9577 33.8342 18.8474 33.831H17.719C17.6101 33.8319 17.5031 33.8599 17.4071 33.9124C17.3112 33.9649 17.2292 34.0404 17.1682 34.1325V34.1325L15.5562 36.8729C15.5253 36.9242 15.5046 36.9812 15.4953 37.0406C15.4861 37.1 15.4883 37.1608 15.5021 37.2193C15.5158 37.2778 15.5407 37.333 15.5753 37.3817C15.6099 37.4304 15.6537 37.4717 15.7039 37.5032C15.7542 37.5347 15.8101 37.5558 15.8683 37.5653C15.9266 37.5747 15.9861 37.5724 16.0435 37.5584C16.1009 37.5444 16.155 37.519 16.2028 37.4837C16.2505 37.4484 16.291 37.4038 16.3219 37.3525L17.0339 36.1467V42.5731C17.0218 42.6495 17.0261 42.7276 17.0465 42.8022C17.0669 42.8767 17.1029 42.9458 17.1521 43.0048C17.2013 43.0637 17.2625 43.111 17.3313 43.1435C17.4002 43.176 17.4752 43.1928 17.5511 43.1928C17.6269 43.1928 17.7019 43.176 17.7708 43.1435C17.8397 43.111 17.9008 43.0637 17.95 43.0048C17.9992 42.9458 18.0352 42.8767 18.0556 42.8022C18.0761 42.7276 18.0804 42.6495 18.0683 42.5731V39.3393H18.525V42.5731C18.5129 42.6495 18.5172 42.7276 18.5376 42.8022C18.558 42.8767 18.5941 42.9458 18.6433 43.0048C18.6924 43.0637 18.7536 43.111 18.8225 43.1435C18.8913 43.176 18.9663 43.1928 19.0422 43.1928C19.1181 43.1928 19.193 43.176 19.2619 43.1435C19.3308 43.111 19.3919 43.0637 19.4411 43.0048C19.4903 42.9458 19.5264 42.8767 19.5468 42.8022C19.5672 42.7276 19.5715 42.6495 19.5594 42.5731V36.1467L20.2714 37.3525C20.3017 37.4044 20.3419 37.4496 20.3896 37.4854C20.4373 37.5212 20.4915 37.5469 20.5491 37.5609C20.6068 37.575 20.6665 37.5771 20.725 37.5672C20.7834 37.5573 20.8393 37.5355 20.8893 37.5032C20.9893 37.4383 21.0607 37.3362 21.0883 37.2186C21.1158 37.1009 21.0975 36.977 21.0371 36.8729ZM18.2832 33.6255C18.5513 33.6392 18.8174 33.5706 19.0469 33.4286C19.2765 33.2866 19.4591 33.0777 19.5711 32.8288C19.6832 32.58 19.7196 32.3026 19.6756 32.0324C19.6316 31.7623 19.5092 31.5117 19.3243 31.3132C19.1394 31.1147 18.9004 30.9772 18.6381 30.9185C18.3759 30.8599 18.1024 30.8827 17.853 30.9841C17.6036 31.0855 17.3897 31.2608 17.2389 31.4873C17.0881 31.7139 17.0073 31.9814 17.007 32.2552C17.0066 32.6071 17.1388 32.9456 17.3764 33.2007C17.614 33.4558 17.9387 33.6079 18.2832 33.6255V33.6255Z" fill="#68324A"/>
<path d="M34.4976 36.8727L32.8856 34.1322C32.8225 34.0391 32.7382 33.9631 32.6399 33.9105C32.5416 33.858 32.4323 33.8307 32.3213 33.8308H31.2064C31.0956 33.8318 30.9867 33.8597 30.8886 33.9121C30.7905 33.9645 30.706 34.0399 30.6421 34.1322V34.1322L29.0167 36.8727C28.9595 36.9775 28.943 37.1005 28.9704 37.2171C28.9977 37.3338 29.067 37.4358 29.1644 37.503C29.2145 37.5353 29.2704 37.557 29.3288 37.5669C29.3872 37.5769 29.447 37.5747 29.5046 37.5607C29.5622 37.5466 29.6165 37.5209 29.6642 37.4851C29.7119 37.4493 29.7521 37.4042 29.7824 37.3523L30.5078 36.1465V42.5728C30.4957 42.6492 30.5 42.7274 30.5204 42.8019C30.5408 42.8765 30.5769 42.9456 30.6261 43.0045C30.6752 43.0635 30.7364 43.1108 30.8053 43.1433C30.8742 43.1757 30.9491 43.1925 31.025 43.1925C31.1009 43.1925 31.1758 43.1757 31.2447 43.1433C31.3136 43.1108 31.3747 43.0635 31.4239 43.0045C31.4731 42.9456 31.5092 42.8765 31.5296 42.8019C31.55 42.7274 31.5543 42.6492 31.5422 42.5728V39.3391H31.9989V42.5728C31.9989 42.7122 32.0522 42.8461 32.1476 42.9459C32.243 43.0458 32.3728 43.1037 32.5094 43.1072C32.6473 43.1038 32.7786 43.0463 32.8761 42.9469C32.9736 42.8474 33.0299 42.7135 33.0333 42.5728V36.1465L33.7453 37.3523C33.8077 37.4558 33.9078 37.5299 34.0237 37.5582C34.1396 37.5864 34.2617 37.5666 34.3633 37.503C34.4648 37.4394 34.5374 37.3373 34.5651 37.219C34.5928 37.1008 34.5734 36.9762 34.511 36.8727H34.4976ZM31.8109 33.6252C32.0766 33.6252 32.3363 33.5449 32.5572 33.3943C32.7781 33.2437 32.9503 33.0297 33.052 32.7794C33.1536 32.529 33.1803 32.2535 33.1284 31.9877C33.0766 31.7219 32.9486 31.4777 32.7608 31.2861C32.5729 31.0945 32.3335 30.964 32.0729 30.9111C31.8124 30.8582 31.5423 30.8854 31.2968 30.9891C31.0513 31.0928 30.8415 31.2684 30.6939 31.4937C30.5463 31.7191 30.4675 31.984 30.4675 32.255C30.4672 32.6091 30.6014 32.9496 30.8418 33.205C31.0822 33.4605 31.4102 33.6111 31.7571 33.6252H31.8109Z" fill="#68324A"/>
<path d="M21.0371 13.7704L19.4116 11.0299C19.3394 10.9387 19.2469 10.8662 19.1418 10.8185C19.0367 10.7709 18.9219 10.7494 18.8071 10.7559H17.6787C17.5698 10.7568 17.4628 10.7848 17.3668 10.8373C17.2709 10.8898 17.1889 10.9653 17.1279 11.0573L15.5159 13.7978C15.4842 13.8489 15.4629 13.9059 15.4531 13.9655C15.4434 14.0251 15.4455 14.086 15.4593 14.1448C15.4731 14.2035 15.4983 14.2589 15.5333 14.3075C15.5684 14.3562 15.6127 14.3972 15.6636 14.4281C15.7664 14.4864 15.8869 14.5032 16.0013 14.4753C16.1157 14.4474 16.2157 14.3768 16.2816 14.2774L16.9936 13.0716V19.498C17.0134 19.6233 17.0764 19.7373 17.1711 19.8196C17.2659 19.9019 17.3863 19.9471 17.5107 19.9471C17.6352 19.9471 17.7556 19.9019 17.8504 19.8196C17.9451 19.7373 18.0081 19.6233 18.0279 19.498V16.2231H18.2563H18.4847V19.4706C18.5046 19.5959 18.5675 19.7099 18.6623 19.7922C18.757 19.8745 18.8774 19.9197 19.0019 19.9197C19.1263 19.9197 19.2467 19.8745 19.3415 19.7922C19.4363 19.7099 19.4992 19.5959 19.5191 19.4706V13.0442L20.2311 14.25C20.2969 14.3494 20.3969 14.42 20.5113 14.4479C20.6257 14.4758 20.7462 14.459 20.849 14.4007C20.9559 14.3426 21.0358 14.2435 21.071 14.1253C21.1063 14.0071 21.0941 13.8794 21.0371 13.7704V13.7704ZM18.2832 10.5093C18.5513 10.5229 18.8173 10.4544 19.0469 10.3124C19.2765 10.1704 19.4591 9.96147 19.5711 9.7126C19.6832 9.46374 19.7196 9.18634 19.6756 8.91619C19.6316 8.64604 19.5092 8.39554 19.3243 8.19699C19.1394 7.99845 18.9004 7.86098 18.6381 7.80232C18.3759 7.74365 18.1024 7.76649 17.853 7.86788C17.6036 7.96926 17.3897 8.14455 17.2389 8.37113C17.0881 8.59771 17.0073 8.86517 17.007 9.13903C17.0066 9.49087 17.1388 9.8294 17.3764 10.0845C17.614 10.3396 17.9387 10.4917 18.2832 10.5093V10.5093Z" fill="#68324A"/>
<path d="M34.4976 13.771L32.8855 11.0305C32.8224 10.9375 32.7381 10.8614 32.6399 10.8089C32.5416 10.7564 32.4323 10.729 32.3213 10.7291H31.2063C31.0956 10.7301 30.9867 10.758 30.8886 10.8104C30.7905 10.8628 30.706 10.9383 30.6421 11.0305V11.0305L29.0166 13.771C28.9543 13.8746 28.9348 13.9992 28.9625 14.1174C28.9903 14.2356 29.0629 14.3377 29.1644 14.4013C29.266 14.4649 29.3881 14.4848 29.504 14.4565C29.6199 14.4282 29.72 14.3542 29.7824 14.2506L30.5078 13.0448V19.4712C30.5276 19.5965 30.5906 19.7105 30.6854 19.7928C30.7801 19.8751 30.9005 19.9203 31.025 19.9203C31.1494 19.9203 31.2698 19.8751 31.3646 19.7928C31.4593 19.7105 31.5223 19.5965 31.5422 19.4712V16.2237H31.7705H31.9989V19.4712C31.9989 19.6093 32.0527 19.7417 32.1484 19.8393C32.2442 19.937 32.374 19.9919 32.5094 19.9919C32.646 19.9919 32.7773 19.9375 32.8752 19.8402C32.9731 19.7429 33.0298 19.6105 33.0333 19.4712V13.0448L33.7453 14.2506C33.8111 14.35 33.9111 14.4206 34.0255 14.4485C34.1399 14.4764 34.2604 14.4596 34.3632 14.4013C34.413 14.3693 34.4561 14.3275 34.4898 14.2783C34.5236 14.2291 34.5475 14.1736 34.56 14.1149C34.5725 14.0562 34.5734 13.9956 34.5627 13.9365C34.552 13.8775 34.5298 13.8212 34.4976 13.771V13.771ZM31.8108 10.5099C32.0846 10.4231 32.324 10.2493 32.494 10.0139C32.664 9.77844 32.7558 9.4937 32.7558 9.20129C32.7558 8.90887 32.664 8.62413 32.494 8.38868C32.324 8.15324 32.0846 7.97945 31.8108 7.89272C31.6098 7.82903 31.3969 7.81442 31.1893 7.85008C30.9817 7.88574 30.7852 7.97067 30.6157 8.09801C30.4462 8.22536 30.3084 8.39155 30.2135 8.58319C30.1185 8.77483 30.069 8.98656 30.069 9.20129C30.069 9.41602 30.1185 9.62774 30.2135 9.81938C30.3084 10.011 30.4462 10.1772 30.6157 10.3046C30.7852 10.4319 30.9817 10.5168 31.1893 10.5525C31.3969 10.5881 31.6098 10.5735 31.8108 10.5099Z" fill="#68324A"/>
<path d="M25 51C20.0555 51 15.222 49.5045 11.1108 46.7025C6.99953 43.9005 3.79521 39.918 1.90302 35.2584C0.0108321 30.5989 -0.484251 25.4717 0.480379 20.5252C1.44501 15.5787 3.82603 11.035 7.32234 7.46879C10.8187 3.90255 15.2732 1.47391 20.1228 0.489987C24.9723 -0.493936 29.9989 0.0110488 34.5671 1.94108C39.1352 3.87112 43.0397 7.13952 45.7867 11.333C48.5338 15.5264 50 20.4566 50 25.5C49.9929 32.2608 47.3567 38.7426 42.6698 43.5232C37.983 48.3038 31.6282 50.9928 25 51ZM25 1.02768C20.2547 1.02768 15.616 2.46296 11.6705 5.15202C7.72496 7.84107 4.64979 11.6631 2.83385 16.1349C1.01792 20.6066 0.542788 25.5272 1.46854 30.2743C2.3943 35.0215 4.67936 39.382 8.03477 42.8046C11.3902 46.2271 15.6652 48.5578 20.3193 49.5021C24.9734 50.4464 29.7975 49.9617 34.1815 48.1095C38.5656 46.2572 42.3127 43.1206 44.949 39.0961C47.5854 35.0717 48.9925 30.3402 48.9925 25.5C48.9854 19.0118 46.4553 12.7914 41.9574 8.20347C37.4595 3.61559 31.361 1.03494 25 1.02768V1.02768Z" fill="#68324A"/>
</svg>
