<svg width="15" height="28" viewBox="0 0 15 28" fill="none" xmlns="http://www.w3.org/2000/svg">
<g clip-path="url(#clip0_3_33)">
<path d="M14.7876 12.2901C14.928 11.7081 14.9993 11.1115 15 10.5128C15 8.52029 14.2098 6.60938 12.8033 5.20045C11.3968 3.79153 9.48912 3 7.5 3C5.51088 3 3.60322 3.79153 2.1967 5.20045C0.790176 6.60938 0 8.52029 0 10.5128C0.000695085 11.1115 0.071997 11.7081 0.212424 12.2901C0.352003 13.2963 0.627287 14.279 1.03074 15.211C1.76698 16.761 4.86884 21.88 6.29305 24.2134C4.36192 24.4552 3.47602 25.287 3.47602 26.068C3.47602 26.9989 4.73367 28.0024 7.5 28.0024C10.2663 28.0024 11.524 27.0014 11.524 26.068C11.524 25.287 10.6308 24.4576 8.70695 24.2134C10.1384 21.88 13.2306 16.761 13.9693 15.211C14.3716 14.2786 14.6468 13.2961 14.7876 12.2901ZM10.3653 26.0728C10.2856 26.2929 9.31767 26.8442 7.5 26.8442C5.68233 26.8442 4.69022 26.2808 4.63228 26.0801C4.68539 25.8891 5.47473 25.4151 6.96894 25.3208C6.98081 25.3416 6.9937 25.3618 7.00756 25.3813C7.05952 25.4653 7.13202 25.5346 7.2182 25.5826C7.30437 25.6307 7.40137 25.6559 7.5 25.6559C7.59863 25.6559 7.69563 25.6307 7.7818 25.5826C7.86798 25.5346 7.94048 25.4653 7.99244 25.3813L8.03106 25.3208C9.50595 25.4079 10.2953 25.8721 10.3653 26.068V26.0728ZM2.07596 14.7129C1.72021 13.8708 1.47673 12.9855 1.35179 12.0797C1.35291 12.0644 1.35291 12.049 1.35179 12.0338C1.23066 11.5359 1.16907 11.0253 1.16833 10.5128C1.16752 9.61348 1.35736 8.72423 1.72529 7.90389C2.09322 7.08355 2.63085 6.35081 3.30262 5.75417C3.97438 5.15753 4.76497 4.71057 5.62207 4.44287C6.47917 4.17517 7.38325 4.09283 8.27449 4.2013C9.16574 4.30977 10.0238 4.60658 10.792 5.07208C11.5602 5.53759 12.2209 6.16118 12.7305 6.9016C13.2401 7.64203 13.5869 8.4824 13.748 9.36714C13.9091 10.2519 13.8809 11.1608 13.6651 12.0338V12.0797C13.5414 12.9857 13.2979 13.8713 12.9409 14.7129C12.1781 16.2774 8.7842 21.8606 7.5 23.9643C6.2158 21.8606 2.82185 16.2774 2.07596 14.7129Z" fill="#68324A"/>
<path d="M7.5 6.26441C6.70345 6.26393 5.92465 6.50013 5.26215 6.94313C4.59964 7.38612 4.08319 8.01601 3.77815 8.75309C3.4731 9.49018 3.39316 10.3013 3.54844 11.0839C3.70372 11.8665 4.08725 12.5854 4.6505 13.1496C5.21374 13.7138 5.9314 14.098 6.71267 14.2536C7.49394 14.4091 8.30371 14.329 9.03953 14.0235C9.77536 13.7179 10.4042 13.2006 10.8464 12.5369C11.2887 11.8733 11.5245 11.0932 11.524 10.2953C11.5233 9.22641 11.0992 8.20152 10.3447 7.44572C9.59017 6.68993 8.56703 6.26505 7.5 6.26441ZM4.63228 10.2953C4.63228 9.72711 4.80047 9.17172 5.11558 8.69932C5.43069 8.22692 5.87856 7.85873 6.40257 7.64131C6.92658 7.42388 7.50318 7.367 8.05946 7.47784C8.61575 7.58868 9.12672 7.86227 9.52778 8.26401C9.92884 8.66575 10.202 9.17761 10.3126 9.73484C10.4233 10.2921 10.3665 10.8697 10.1494 11.3946C9.93237 11.9195 9.56481 12.3681 9.09322 12.6838C8.62162 12.9994 8.06718 13.1679 7.5 13.1679C6.73963 13.1672 6.01058 12.8644 5.47292 12.3258C4.93526 11.7872 4.63292 11.0569 4.63228 10.2953Z" fill="#68324A"/>
</g>
<defs>
<clipPath id="clip0_3_33">
<rect width="15" height="28" fill="white"/>
</clipPath>
</defs>
</svg>
