<svg width="51" height="51" viewBox="0 0 51 51" fill="none" xmlns="http://www.w3.org/2000/svg">
<path d="M39.5997 27.5692L37.7225 24.2669C37.6128 24.0751 37.5306 23.9106 37.4484 23.7873C37.2762 23.5594 37.1675 23.2899 37.1333 23.0063C37.0647 22.5541 37.051 21.9512 37.0236 21.2524C36.9962 18.7586 36.8455 15.0727 33.9543 12.8803C33.917 12.8405 33.8713 12.8095 33.8205 12.7895C33.7697 12.7695 33.7152 12.7609 33.6607 12.7644C33.6063 12.768 33.5533 12.7835 33.5056 12.8099C33.4578 12.8364 33.4165 12.873 33.3846 12.9173C33.3527 12.9615 33.331 13.0123 33.321 13.066C33.311 13.1196 33.313 13.1748 33.3269 13.2276C33.3407 13.2803 33.3661 13.3294 33.4011 13.3712C33.4362 13.413 33.48 13.4466 33.5295 13.4695C36.1193 15.3878 36.27 18.786 36.27 21.2798C36.272 21.8934 36.3086 22.5064 36.3796 23.1159C36.434 23.4902 36.5748 23.8467 36.7907 24.1573L37.0647 24.6232L38.942 27.9391C38.989 28.0327 39.0134 28.1359 39.0134 28.2406C39.0134 28.3453 38.989 28.4485 38.942 28.542C38.8925 28.6312 38.8239 28.7082 38.7409 28.7675C38.6579 28.8268 38.5628 28.8668 38.4624 28.8846L36.6674 29.0353C36.5853 29.0436 36.5083 29.0792 36.4487 29.1363C36.3891 29.1934 36.3503 29.2688 36.3385 29.3505L35.4616 35.4206C35.4563 35.9041 35.3369 36.3795 35.1131 36.8081C34.8893 37.2367 34.5673 37.6064 34.1736 37.887C33.925 38.0811 33.6333 38.2124 33.3232 38.2696C33.0131 38.3269 32.6937 38.3084 32.3923 38.2159L27.1854 36.1742C27.0963 36.1379 26.9965 36.1384 26.9079 36.1756C26.8192 36.2129 26.749 36.2839 26.7126 36.3729C26.6763 36.4619 26.6768 36.5618 26.7141 36.6504C26.7513 36.7391 26.8223 36.8093 26.9113 36.8456L29.3092 37.7911L29.6929 42.2169C29.6999 42.309 29.7424 42.3948 29.8114 42.4561C29.8805 42.5175 29.9706 42.5496 30.0629 42.5458C30.1109 42.5441 30.1581 42.5327 30.2016 42.5123C30.2451 42.4919 30.284 42.4629 30.316 42.427C30.348 42.3912 30.3724 42.3492 30.3878 42.3037C30.4031 42.2582 30.4091 42.21 30.4054 42.1621L30.0492 38.0514L32.1182 38.8599C32.3728 38.9528 32.642 38.9992 32.9129 38.9969C33.5152 38.9892 34.0999 38.7927 34.5846 38.4351C35.0667 38.095 35.4619 37.646 35.738 37.1247C36.0142 36.6033 36.1636 36.0242 36.1741 35.4343L37.0099 29.693L38.5172 29.5697C38.7416 29.541 38.9554 29.4571 39.1395 29.3256C39.3236 29.1941 39.4723 29.019 39.5723 28.8161C39.6752 28.6252 39.7313 28.4127 39.7361 28.1959C39.7408 27.9791 39.6941 27.7643 39.5997 27.5692Z" fill="#68324A"/>
<path d="M39.5723 27.0074L37.7499 24.2669L30.2136 26.4456C29.734 25.9934 28.0897 24.4862 26.418 22.6638C26.3508 22.5911 26.2575 22.5481 26.1585 22.5442C26.0596 22.5404 25.9632 22.576 25.8905 22.6432C25.8178 22.7104 25.7748 22.8038 25.771 22.9027C25.7671 23.0017 25.8027 23.0981 25.8699 23.1707C27.5142 24.9383 29.1037 26.4182 29.6655 26.9252L27.5416 31.0359L24.0749 29.3779C23.9876 29.3349 23.8869 29.3281 23.7945 29.3588C23.7022 29.3896 23.6257 29.4555 23.5817 29.5423C23.5432 29.6318 23.5402 29.7325 23.5733 29.8242C23.6064 29.9158 23.673 29.9913 23.7598 30.0356L27.4046 31.8169L30.9946 38.3666H31.0631C31.6312 38.8439 32.3369 39.1272 33.0774 39.175C33.7103 39.1515 34.3156 38.9094 34.7902 38.4899C36.5727 36.655 38.1025 34.5906 39.3393 32.3513C39.7897 31.5396 40.0452 30.6342 40.0857 29.7068C40.1261 28.7794 39.9503 27.8552 39.5723 27.0074Z" fill="#68324A"/>
<path d="M23.3624 8.61919C16.5113 9.2632 11.4414 13.0587 10.9344 18.2793C10.0849 27.2132 18.2652 27.4325 17.5938 34.0644L16.9224 41.4636C16.9224 42.0665 17.0457 42.231 17.2512 42.2584C17.3424 42.2552 17.4292 42.2185 17.4949 42.1553C17.5607 42.0921 17.6008 42.0068 17.6075 41.9158C18.1556 35.7224 18.2789 34.2288 18.3611 33.3108C20.5672 33.4478 21.403 32.4338 22.554 29.2001C22.8134 29.5198 23.1415 29.777 23.5139 29.9526C23.8863 30.1281 24.2936 30.2175 24.7053 30.214C25.272 30.2089 25.8247 30.0374 26.2947 29.7207C26.3363 29.6957 26.3724 29.6623 26.4006 29.6228C26.4289 29.5833 26.4488 29.5384 26.459 29.4909C26.4693 29.4434 26.4697 29.3944 26.4603 29.3467C26.4509 29.299 26.4319 29.2538 26.4044 29.2138C26.3793 29.1741 26.3466 29.1397 26.3081 29.1127C26.2697 29.0857 26.2264 29.0665 26.1805 29.0564C26.1347 29.0462 26.0873 29.0452 26.041 29.0534C25.9948 29.0616 25.9506 29.0788 25.9111 29.1041C25.5563 29.3493 25.1364 29.4829 24.7053 29.4878C23.0473 29.4878 22.3348 27.6517 21.9648 26.1033C21.7858 25.5883 21.7644 25.0315 21.9036 24.5043C22.0427 23.977 22.336 23.5033 22.7458 23.1436C23.226 22.8961 23.7618 22.7762 24.3017 22.7954C24.8416 22.8146 25.3675 22.9723 25.8289 23.2533C26.2899 23.6107 26.8701 23.7786 27.4507 23.7226C28.0314 23.6665 28.5688 23.3908 28.953 22.9518C29.1577 22.6306 29.2267 22.2413 29.1448 21.8693L28.9393 21.0061C28.804 20.4203 28.8937 19.805 29.1906 19.2822C29.4875 18.7594 29.97 18.3672 30.5425 18.1834L34.3517 16.9639C35.0993 16.7729 35.7904 16.4059 36.3673 15.8934C36.9441 15.3809 37.39 14.7378 37.6677 14.0179C38.3665 10.9623 33.5707 7.66003 23.3624 8.61919Z" fill="#68324A"/>
<path d="M25.5 51C20.4566 51 15.5264 49.5045 11.333 46.7025C7.13952 43.9005 3.87112 39.918 1.94108 35.2584C0.0110488 30.5989 -0.493936 25.4717 0.489987 20.5252C1.47391 15.5787 3.90255 11.035 7.46879 7.46879C11.035 3.90255 15.5787 1.47391 20.5252 0.489987C25.4717 -0.493936 30.5989 0.0110488 35.2584 1.94108C39.918 3.87112 43.9005 7.13952 46.7025 11.333C49.5045 15.5264 51 20.4566 51 25.5C50.9928 32.2608 48.3038 38.7426 43.5232 43.5232C38.7426 48.3038 32.2608 50.9928 25.5 51ZM25.5 1.02768C20.6598 1.02768 15.9284 2.46296 11.9039 5.15202C7.87946 7.84107 4.74278 11.6631 2.89053 16.1349C1.03828 20.6066 0.553644 25.5272 1.49791 30.2743C2.44218 35.0215 4.77295 39.382 8.19546 42.8046C11.618 46.2271 15.9785 48.5578 20.7257 49.5021C25.4729 50.4464 30.3934 49.9617 34.8652 48.1095C39.3369 46.2572 43.159 43.1206 45.848 39.0961C48.5371 35.0717 49.9723 30.3402 49.9723 25.5C49.9651 19.0118 47.3844 12.7914 42.7965 8.20347C38.2087 3.61559 31.9882 1.03494 25.5 1.02768Z" fill="#68324A"/>
</svg>
