<svg width="51" height="51" viewBox="0 0 51 51" fill="none" xmlns="http://www.w3.org/2000/svg">
<path d="M32.68 23.8281C32.8847 24.0333 33.047 24.277 33.1575 24.545C33.268 24.813 33.3246 25.1002 33.324 25.3901C33.3222 25.9751 33.0909 26.5359 32.68 26.9522L26.1988 33.4334C25.7808 33.8459 25.2172 34.0772 24.6299 34.0772C24.0426 34.0772 23.479 33.8459 23.061 33.4334L21.5537 31.9261C21.3482 31.7212 21.1852 31.4777 21.074 31.2097C20.9627 30.9416 20.9055 30.6543 20.9055 30.3641C20.9055 30.0739 20.9627 29.7865 21.074 29.5184C21.1852 29.2504 21.3482 29.0069 21.5537 28.802L28.0349 22.3208C28.2386 22.113 28.4816 21.9478 28.7498 21.8349C29.018 21.722 29.306 21.6636 29.597 21.6631C29.8882 21.662 30.1767 21.7197 30.4451 21.8327C30.7135 21.9458 30.9563 22.1118 31.1591 22.3208L32.68 23.8281Z" fill="#68324A"/>
<path d="M39.449 20.8686L34.2558 15.7302C33.1462 14.6241 31.6433 14.0029 30.0766 14.0029C28.5098 14.0029 27.0069 14.6241 25.8974 15.7302L14.73 26.9113C14.179 27.4589 13.7417 28.1101 13.4433 28.8273C13.1449 29.5445 12.9913 30.3137 12.9913 31.0905C12.9913 31.8674 13.1449 32.6365 13.4433 33.3538C13.7417 34.071 14.179 34.7222 14.73 35.2697L19.8684 40.3944C20.4159 40.9454 21.0671 41.3827 21.7843 41.6811C22.5016 41.9795 23.2707 42.1331 24.0476 42.1331C24.8244 42.1331 25.5936 41.9795 26.3108 41.6811C27.028 41.3827 27.6792 40.9454 28.2268 40.3944L39.3941 29.227C39.9488 28.6831 40.3903 28.0348 40.6934 27.3195C40.9965 26.6042 41.1552 25.8361 41.1603 25.0592C41.1654 24.2824 41.0168 23.5122 40.7231 22.793C40.4294 22.0738 39.9964 21.4198 39.449 20.8686ZM33.5159 27.802L27.0347 34.2558C26.3937 34.8876 25.5299 35.2417 24.6299 35.2417C23.7299 35.2417 22.8661 34.8876 22.2252 34.2558L20.7042 32.7485C20.0649 32.1087 19.7058 31.2413 19.7058 30.3369C19.7058 29.4325 20.0649 28.5651 20.7042 27.9253L27.1991 21.4441C27.5138 21.1264 27.8883 20.8741 28.3011 20.702C28.7138 20.5298 29.1566 20.4412 29.6038 20.4412C30.0511 20.4412 30.4938 20.5298 30.9066 20.702C31.3194 20.8741 31.6939 21.1264 32.0086 21.4441L33.5159 22.9514C34.1551 23.5911 34.5142 24.4586 34.5142 25.363C34.5142 26.2674 34.1551 27.1348 33.5159 27.7746V27.802Z" fill="#68324A"/>
<path d="M17.9089 19.4987C19.4451 19.4987 20.6905 18.2533 20.6905 16.7171C20.6905 15.1809 19.4451 13.9355 17.9089 13.9355C16.3727 13.9355 15.1273 15.1809 15.1273 16.7171C15.1273 18.2533 16.3727 19.4987 17.9089 19.4987Z" fill="#68324A"/>
<path d="M23.8009 13.3324C24.936 13.3324 25.8563 12.4122 25.8563 11.277C25.8563 10.1419 24.936 9.22168 23.8009 9.22168C22.6658 9.22168 21.7456 10.1419 21.7456 11.277C21.7456 12.4122 22.6658 13.3324 23.8009 13.3324Z" fill="#68324A"/>
<path d="M18.1008 11.8113C18.9181 11.8113 19.5806 11.1487 19.5806 10.3314C19.5806 9.51411 18.9181 8.85156 18.1008 8.85156C17.2835 8.85156 16.6209 9.51411 16.6209 10.3314C16.6209 11.1487 17.2835 11.8113 18.1008 11.8113Z" fill="#68324A"/>
<path d="M25.5 51C20.4566 51 15.5264 49.5045 11.333 46.7025C7.1395 43.9005 3.8711 39.918 1.94107 35.2584C0.0110335 30.5989 -0.493952 25.4717 0.489972 20.5252C1.47389 15.5787 3.90253 11.035 7.46877 7.46879C11.035 3.90255 15.5787 1.47391 20.5252 0.489987C25.4717 -0.493936 30.5989 0.0110488 35.2584 1.94108C39.9179 3.87112 43.9005 7.13952 46.7025 11.333C49.5044 15.5264 51 20.4566 51 25.5C50.9927 32.2608 48.3038 38.7426 43.5232 43.5232C38.7426 48.3038 32.2608 50.9928 25.5 51ZM25.5 1.02768C20.6598 1.02768 15.9284 2.46296 11.9039 5.15202C7.87945 7.84107 4.74277 11.6631 2.89051 16.1349C1.03826 20.6066 0.553628 25.5272 1.4979 30.2743C2.44217 35.0215 4.77293 39.382 8.19545 42.8046C11.618 46.2271 15.9785 48.5578 20.7257 49.5021C25.4728 50.4464 30.3934 49.9617 34.8652 48.1095C39.3369 46.2572 43.1589 43.1206 45.848 39.0961C48.537 35.0717 49.9723 30.3402 49.9723 25.5C49.9651 19.0118 47.3844 12.7914 42.7965 8.20347C38.2086 3.61559 31.9882 1.03494 25.5 1.02768Z" fill="#68324A"/>
</svg>
