<svg width="51" height="51" viewBox="0 0 51 51" fill="none" xmlns="http://www.w3.org/2000/svg">
<path d="M43.4597 17.5479C42.5 16.9996 41.2661 17.4108 40.8548 18.3705L40.1694 19.7415V11.927C40.1694 10.9673 39.4839 10.1447 38.5242 10.1447C38.1129 10.1447 37.8387 10.2818 37.4274 10.556V9.73343C37.4274 8.77375 36.6048 7.95117 35.6452 7.95117C35.2339 7.95117 34.6855 8.08827 34.4113 8.49956C34.1371 8.77375 33.8629 9.32214 33.8629 9.73343V9.87053C33.5887 9.59633 33.1774 9.45924 32.7661 9.45924C31.8064 9.45924 30.9839 10.2818 30.9839 11.2415V11.927C30.7097 11.6528 30.2984 11.5157 29.8871 11.5157C29.4758 11.5157 28.9274 11.6528 28.6532 12.0641C28.379 12.3383 28.1048 12.8867 28.1048 13.2979V26.5963C28.1048 28.2415 28.7903 29.8867 29.8871 30.9834V41.9512C29.8871 42.0883 30.0242 42.3625 30.1613 42.3625C30.2984 42.3625 30.5726 42.2254 30.5726 41.9512V30.9834C30.5726 30.8463 30.5726 30.8463 30.4355 30.7092C29.3387 29.7496 28.6532 28.2415 28.6532 26.7334V22.6205V13.5721C28.6532 13.2979 28.7903 13.0238 28.9274 12.7496C29.2016 12.4754 29.4758 12.3383 29.75 12.3383C30.0242 12.3383 30.2984 12.4754 30.4355 12.6125C30.5726 12.7496 30.7097 13.0238 30.7097 13.2979V20.5641C30.7097 20.7012 30.8468 20.9754 31.121 20.9754C31.2581 20.9754 31.5323 20.8383 31.5323 20.5641V13.435V11.2415C31.5323 10.6931 32.0806 10.1447 32.629 10.1447C33.1774 10.1447 33.7258 10.556 33.7258 11.2415V20.2899C33.7258 20.427 33.8629 20.7012 34.1371 20.7012C34.2742 20.7012 34.5484 20.5641 34.5484 20.2899V9.73343C34.5484 9.45924 34.6855 9.18504 34.8226 8.91085C34.9597 8.77375 35.2339 8.63666 35.5081 8.63666C36.0564 8.63666 36.6048 9.04795 36.6048 9.73343V20.427C36.6048 20.5641 36.7419 20.8383 37.0161 20.8383C37.2903 20.8383 37.4274 20.7012 37.4274 20.427V11.927C37.4274 11.3786 37.9758 10.8302 38.5242 10.8302C39.0726 10.8302 39.621 11.3786 39.621 11.927V21.1125C39.621 21.1125 39.621 21.1125 39.621 21.2496C39.621 21.2496 39.621 21.2496 39.7581 21.2496H39.8952H39.7581H39.8952C39.8952 21.2496 39.8952 21.2496 40.0323 21.1125L41.4032 18.5076C41.6774 17.9592 42.5 17.685 43.0484 17.9592C43.5968 18.2334 43.871 19.056 43.5968 19.6044L38.7984 28.6528C38.5242 29.3383 38.1129 29.8867 37.4274 30.435C37.4274 30.435 37.4274 30.435 37.2903 30.5721C37.2903 30.5721 37.2903 30.5721 37.2903 30.7092V41.8141C37.2903 41.9512 37.4274 42.2254 37.7016 42.2254C37.8387 42.2254 38.1129 42.0883 38.1129 41.9512V30.9834C38.6613 30.435 39.2097 29.8867 39.4839 29.2012L44.2823 20.1528C44.5564 19.056 44.2823 18.0963 43.4597 17.5479Z" fill="#68324A"/>
<path d="M21.3871 18.3706H20.7016V16.8625C21.25 16.5883 21.6613 16.0399 21.6613 15.3545V10.2819C21.6613 9.3222 20.9758 8.63672 20.0161 8.63672H16.4516C15.4919 8.63672 14.8065 9.3222 14.8065 10.2819V15.3545C14.8065 16.0399 15.2177 16.5883 15.7661 16.8625V18.3706H15.0806C13.2984 18.3706 11.9274 19.7416 11.9274 21.5238V40.0319C11.9274 41.8141 13.2984 43.1851 15.0806 43.1851H21.25C23.0323 43.1851 24.4032 41.8141 24.4032 40.0319V21.3867C24.4032 19.7416 23.0323 18.3706 21.3871 18.3706ZM15.629 15.3545V10.2819C15.629 9.73349 16.0403 9.4593 16.4516 9.4593C16.4516 9.4593 16.4516 9.4593 16.5887 9.4593H20.2903C20.8387 9.4593 21.1129 9.87059 21.25 10.2819V15.3545C21.25 15.9028 20.8387 16.177 20.2903 16.177H16.4516C15.9032 16.177 15.629 15.7657 15.629 15.3545ZM19.879 16.9996V18.3706H16.4516V16.9996H19.879ZM21.25 42.3625H15.0806C13.7097 42.3625 12.6129 41.2657 12.6129 39.8948V36.8787H23.7177V39.8948C23.7177 41.2657 22.621 42.3625 21.25 42.3625ZM21.5242 29.7496V32.0803H19.3306V34.2738H17V32.0803H14.8065V29.7496H17V27.5561H19.3306V29.7496H21.5242ZM23.7177 24.9512H12.6129V21.5238C12.6129 20.1528 13.7097 19.0561 15.0806 19.0561H21.25C22.621 19.0561 23.7177 20.1528 23.7177 21.5238V24.9512Z" fill="#68324A"/>
<path d="M22.8952 14.5327C22.8952 14.6698 22.8952 14.6698 22.8952 14.5327C23.1694 14.5327 23.3065 14.3956 23.3065 14.2585C23.3065 14.1214 23.3064 13.8472 23.1694 13.8472L22.8952 13.7101C22.7581 13.573 22.4839 13.7101 22.4839 13.8472C22.3468 13.9843 22.4839 14.2585 22.621 14.2585L22.8952 14.5327Z" fill="#68324A"/>
<path d="M22.7581 12.6133C22.621 12.6133 22.3468 12.7504 22.4839 13.0246C22.4839 13.1617 22.621 13.4359 22.7581 13.4359H23.0323C23.1694 13.4359 23.3065 13.2988 23.3065 13.0246C23.3065 12.8875 23.1694 12.6133 23.0323 12.6133H22.7581Z" fill="#68324A"/>
<path d="M26.1855 10.556L26.5968 10.4189C26.7339 10.2818 26.871 10.1447 26.7339 10.0076C26.7339 9.8705 26.4597 9.7334 26.3226 9.7334L26.0484 9.8705C25.9113 10.0076 25.7742 10.1447 25.9113 10.2818C25.9113 10.556 26.0484 10.556 26.1855 10.556Z" fill="#68324A"/>
<path d="M24.4032 11.379C24.4032 11.379 24.5403 11.379 24.4032 11.379L24.8145 11.2419C24.9516 11.1048 25.0887 10.9677 24.9516 10.8306C24.9516 10.6935 24.6774 10.5564 24.5403 10.6935L24.2661 10.8306C24.129 10.9677 23.9919 11.1048 24.129 11.2419C24.129 11.2419 24.2661 11.379 24.4032 11.379Z" fill="#68324A"/>
<path d="M22.7581 12.0642L23.1694 11.9271C23.3064 11.79 23.4435 11.6529 23.3065 11.3787C23.1694 11.2416 23.0323 11.1045 22.8952 11.1045L22.621 11.2416C22.4839 11.3787 22.3468 11.5158 22.4839 11.6529C22.4839 11.9271 22.621 12.0642 22.7581 12.0642Z" fill="#68324A"/>
<path d="M26.3226 15.2178C26.1855 15.2178 25.9113 15.2178 25.9113 15.492C25.7742 15.6291 25.9113 15.9033 26.0484 15.9033L26.3226 16.0404H26.4597C26.5968 16.0404 26.7339 15.9033 26.7339 15.7662C26.871 15.6291 26.7339 15.3549 26.5968 15.3549L26.3226 15.2178Z" fill="#68324A"/>
<path d="M26.871 12.6133H26.5968C26.4597 12.6133 26.1855 12.7504 26.3226 13.0246C26.3226 13.1617 26.4597 13.4359 26.5968 13.4359H26.871C27.0081 13.4359 27.2823 13.2988 27.2823 13.1617C27.2823 12.7504 27.1452 12.6133 26.871 12.6133Z" fill="#68324A"/>
<path d="M24.5403 14.5324C24.4032 14.3953 24.129 14.5324 24.129 14.6695C23.9919 14.8066 24.129 15.0808 24.2661 15.2179L24.5403 15.355H24.6774C24.8145 15.355 24.9516 15.2179 24.9516 15.0808C24.9516 14.9437 24.9516 14.6695 24.8145 14.6695L24.5403 14.5324Z" fill="#68324A"/>
<path d="M24.9516 12.6133H24.6774C24.5403 12.6133 24.2661 12.7504 24.4032 13.0246C24.4032 13.1617 24.5403 13.4359 24.6774 13.4359H24.9516C25.0887 13.4359 25.3629 13.2988 25.2258 13.0246C25.3629 12.7504 25.2258 12.6133 24.9516 12.6133Z" fill="#68324A"/>
<path d="M25.5 0C11.379 0 0 11.379 0 25.5C0 39.621 11.379 51 25.5 51C39.621 51 51 39.621 51 25.5C51 11.379 39.621 0 25.5 0ZM25.5 50.0403C11.9274 50.0403 0.959677 39.0726 0.959677 25.5C0.959677 11.9274 11.9274 0.959677 25.5 0.959677C39.0726 0.959677 49.9032 11.9274 50.0403 25.5C50.0403 39.0726 39.0726 50.0403 25.5 50.0403Z" fill="#68324A"/>
</svg>
